<svg width="120" height="22" viewBox="0 0 120 22" fill="none" xmlns="http://www.w3.org/2000/svg">
<path d="M9.71038 0.888977C8.57223 6.94335 4.90125 11.0595 0.000190995 11.0595L0 21.997C6.91967 21.997 8.6197 20.7592 11.474 16.9046C13.1595 14.6284 15.94 11.0204 19.7144 11.0204V0H10.7571C10.2407 0 9.80577 0.381505 9.71038 0.888977Z" fill="white"/>
<path d="M29.7203 21.111C30.8584 15.0566 34.5294 10.9405 39.4305 10.9405L39.4307 0.00301552C32.511 0.00301552 30.811 1.24083 27.9567 5.09535C26.2711 7.37161 23.4907 10.9796 19.7163 10.9796V22H28.6736C29.1899 22 29.6249 21.6185 29.7203 21.111Z" fill="white"/>
<path d="M45.7389 10.1561C46.3091 8.3267 47.8771 6.75864 50.8944 6.75864C53.9355 6.75864 55.8362 8.37421 55.8362 11.249V18.8279H53.3416V17.3549H53.0327C52.7001 17.9964 51.8685 19.1605 49.6352 19.1605C47.2119 19.1605 45.335 17.8063 45.335 15.4305C45.335 13.0071 47.2119 11.7717 49.8253 11.7717H53.294V11.0589C53.294 9.79972 52.51 8.87314 50.8707 8.87314C49.2313 8.87314 48.3998 9.7522 48.1622 10.9639L45.7389 10.1561ZM47.9484 15.3592C47.9484 16.3571 48.7324 17.0223 50.1342 17.0223C51.9873 17.0223 53.294 15.8581 53.294 14.005V13.7911H49.9916C48.7324 13.7911 47.9484 14.3851 47.9484 15.3592Z" fill="white"/>
<path d="M56.0439 7.11502H58.8711L62.031 16.5946H62.2686L65.4285 7.11502H68.2557L64.0742 18.8279H60.2491L56.0439 7.11502Z" fill="white"/>
<path d="M68.7192 10.1561C69.2894 8.3267 70.8575 6.75864 73.8748 6.75864C76.9159 6.75864 78.8165 8.37421 78.8165 11.249V18.8279H76.3219V17.3549H76.0131C75.6804 17.9964 74.8489 19.1605 72.6156 19.1605C70.1922 19.1605 68.3153 17.8063 68.3153 15.4305C68.3153 13.0071 70.1922 11.7717 72.8057 11.7717H76.2744V11.0589C76.2744 9.79972 75.4904 8.87314 73.851 8.87314C72.2117 8.87314 71.3802 9.7522 71.1426 10.9639L68.7192 10.1561ZM70.9287 15.3592C70.9287 16.3571 71.7128 17.0223 73.1145 17.0223C74.9677 17.0223 76.2744 15.8581 76.2744 14.005V13.7911H72.972C71.7128 13.7911 70.9287 14.3851 70.9287 15.3592Z" fill="white"/>
<path d="M80.8408 7.11502H83.383V8.92066H83.6206C84.1433 7.89904 85.1886 6.90119 87.4219 6.90119C90.1066 6.90119 92.0073 8.80186 92.0073 11.7954V18.8279H89.3939V11.938C89.3939 9.96603 88.3723 9.03945 86.6379 9.03945C84.6897 9.03945 83.4305 10.3937 83.4305 12.817V18.8279H80.8408V7.11502Z" fill="white"/>
<path d="M92.4854 9.22952V7.11502H95.6453V3.2899H98.2588V7.11502H101.68V9.22952H98.2588V15.9769C98.2588 16.4521 98.4963 16.6897 98.924 16.6897H101.324V18.8279H98.0212C96.5957 18.8279 95.6453 17.8776 95.6453 16.4046V9.22952H92.4854Z" fill="white"/>
<path d="M102.484 3.62252C102.484 2.50588 103.315 1.74561 104.408 1.74561C105.501 1.74561 106.333 2.50588 106.333 3.62252C106.333 4.71541 105.501 5.47568 104.408 5.47568C103.315 5.47568 102.484 4.71541 102.484 3.62252ZM105.715 7.11502V18.8279H103.125V7.11502H105.715Z" fill="white"/>
<path d="M107.696 10.3224C107.696 8.06535 109.502 6.7824 112.258 6.7824C114.895 6.7824 116.606 8.06535 117.128 10.0373L114.752 10.7501C114.467 9.32455 113.541 8.77811 112.258 8.77811C110.975 8.77811 110.215 9.30079 110.215 10.1561C110.215 11.0589 110.999 11.4391 112.282 11.6766L113.089 11.8192C115.655 12.2944 117.58 12.9834 117.58 15.383C117.58 17.7826 115.679 19.1605 112.733 19.1605C109.716 19.1605 107.625 17.8063 107.221 15.1929L109.644 14.5989C109.977 16.5234 111.212 17.1411 112.733 17.1411C114.23 17.1411 115.061 16.4758 115.061 15.573C115.061 14.6702 114.277 14.2901 112.733 14.005L111.925 13.8624C109.549 13.4348 107.696 12.5557 107.696 10.3224Z" fill="white"/>
</svg>
