<svg width="194" height="194" viewBox="0 0 194 194" fill="none" xmlns="http://www.w3.org/2000/svg">
<circle cx="97" cy="97" r="97" fill="white"/>
<path d="M128.997 57.0037V41.002H49.002V153.001H73.0112V145.007H88.9995V136.999H105.001V129.005H128.997V121.01H137.005V113.003H128.997V120.997V128.992H105.001V120.997V88.9936H144.999V112.989V64.9978H128.997V56.9903V57.0037ZM129.01 113.016H137.005V121.01H129.01V113.016ZM97.007 136.999H88.9995V145.007H57.0095V97.0012H65.0037V105.009H73.0112V113.003H81.0053V121.01H88.9995V129.005H97.007V136.999ZM105.001 80.9995H97.007V89.0071H73.0112V80.9995H97.007H65.0037V57.0037H73.0112V49.0096H97.007V57.0037H105.001V80.9995Z" fill="#D7D7D7"/>
<path d="M89 57.0039H73.0117V73.0055H89V57.0039Z" fill="#29F91E"/>
<path d="M96.9909 57.0039H97.0043V49.0098H73.0085V57.0039H88.9968V73.0056H73.0085H72.9951V57.0039H73.0085H65.001V80.9997H97.0043H96.9909V57.0039Z" fill="#087903"/>
<path d="M128.996 97H112.994V113.002H128.996V97Z" fill="#7C0404"/>
<path d="M105.002 121.009H108.003H128.998V113.002H112.996V97.0001H128.998V113.002H137.005V89.0059H105.002V121.009Z" fill="#E80000"/>
<path d="M80.995 129.004V121.01H73.0144H73.0009V113.002H64.9933V105.008H57.0127V136.998H89.0026V129.004H80.995Z" fill="#0919D8"/>
<path d="M65.005 105.007V97H57.0117V105.007H64.9915H65.005Z" fill="#16B5F4"/>
<path d="M89.0001 121.01H81.0068V129.003H89.0001V121.01Z" fill="#16B5F4"/>
<path d="M89.002 129.004V136.997H97.0088V129.004H89.002Z" fill="#16B5F4"/>
<path d="M80.9905 121.009H81.004V113.002H73.0107V121.009H80.9905Z" fill="#16B5F4"/>
<path d="M73.0145 105.008H65.0078V113.001H73.0145V105.008Z" fill="#16B5F4"/>
<path d="M152.991 41.002H144.998V49.0088H152.991V41.002Z" fill="#9E9E9E"/>
<path d="M160.997 49.0098H152.99V57.003H160.997V49.0098Z" fill="#9E9E9E"/>
<path d="M128.995 57.0034H137.003V41.0017H144.997V33.0076H137.003V25H128.995V41.0017V57.0034Z" fill="#9E9E9E"/>
<path d="M88.9997 136.998H57.0098V145.006H88.9997V136.998Z" fill="black"/>
<path d="M161.002 57.0039H128.998V64.998H145V65.0114H152.994V89.0072H161.002V57.0039Z" fill="black"/>
<path d="M152.994 161.007H105.003V169.015H161.002V168.517V161.007V121.01H152.994V161.007Z" fill="black"/>
<path d="M41.0076 33.0076H128.997V25H33V25.0135V169.002V169.016H56.9958V161.008H41.0076V33.0076Z" fill="black"/>
<path d="M137.004 89.0059V113.015V113.002L144.999 113.015V89.0059H137.004Z" fill="black"/>
<path d="M105.003 121.01V129.004H128.999V121.01H108.004H105.003Z" fill="black"/>
<path d="M137.002 113.016H129.009V121.009H137.002V113.016Z" fill="black"/>
<path d="M72.9971 89.0075H97.0064V81H72.9971V89.0075Z" fill="black"/>
<path d="M105.001 57.0039H97.0068V80.9997H105.001V57.0039Z" fill="black"/>
<path d="M136.956 129.356V145.227H113.142V153.156H144.885V129.356H136.956Z" fill="black"/>
</svg>
