<svg width="500" height="500" viewBox="0 0 500 500" fill="none" xmlns="http://www.w3.org/2000/svg">
<g clip-path="url(#clip0_5215_9401)">
<path d="M250 500C388.071 500 500 388.071 500 250C500 111.929 388.071 0 250 0C111.929 0 0 111.929 0 250C0 388.071 111.929 500 250 500Z" fill="white"/>
<path d="M160.855 248.826C160.014 263.438 171.262 275.948 185.874 276.789C186.399 276.789 186.925 276.789 187.451 276.789C202.168 276.789 214.047 264.91 213.941 250.193C213.941 235.476 202.063 223.597 187.346 223.702C173.259 223.702 161.591 234.74 160.855 248.826Z" fill="#0033AD"/>
<path d="M61.8306 241.993C57.1001 241.678 53.0003 245.357 52.7901 250.088C52.5798 254.818 56.154 258.918 60.8845 259.128C65.615 259.444 69.6096 255.764 69.925 251.034C70.2403 246.303 66.5611 242.309 61.8306 241.993Z" fill="#0033AD"/>
<path d="M159.172 94.7168C163.377 92.6144 165.059 87.3583 162.956 83.1534C160.854 78.9485 155.598 77.2666 151.393 79.369C147.188 81.4714 145.506 86.6224 147.608 90.8273C149.711 95.1373 154.862 96.9244 159.172 94.7168Z" fill="#0033AD"/>
<path d="M186.082 141.707C192.6 138.449 195.228 130.459 191.969 123.942C188.71 117.424 180.721 114.796 174.203 118.055C167.686 121.314 165.058 129.303 168.317 135.821C171.575 142.338 179.565 144.966 186.082 141.707Z" fill="#0033AD"/>
<path d="M95.4697 173.98C100.516 177.239 107.243 175.872 110.607 170.826C113.866 165.78 112.499 159.052 107.454 155.689C102.408 152.43 95.68 153.796 92.3161 158.842C88.9521 163.888 90.4239 170.721 95.4697 173.98Z" fill="#0033AD"/>
<path d="M111.552 237.263C104.194 236.842 97.9916 242.414 97.5711 249.772C97.1507 257.131 102.722 263.333 110.081 263.753C117.439 264.174 123.641 258.602 124.062 251.244C124.482 243.99 118.911 237.683 111.552 237.263Z" fill="#0033AD"/>
<path d="M96.9403 326.301C91.579 329.034 89.3715 335.552 92.1046 341.018C94.8378 346.379 101.355 348.587 106.822 345.854C112.183 343.12 114.391 336.603 111.657 331.137C108.924 325.775 102.301 323.568 96.9403 326.301Z" fill="#0033AD"/>
<path d="M148.45 209.826C155.703 214.557 165.375 212.559 170 205.306C174.73 198.053 172.733 188.381 165.48 183.756C158.226 179.025 148.555 181.023 143.93 188.276C139.199 195.424 141.197 205.096 148.45 209.826Z" fill="#0033AD"/>
<path d="M311.915 140.655C318.012 144.65 326.317 142.968 330.311 136.871C334.306 130.774 332.624 122.469 326.527 118.474C320.43 114.48 312.125 116.162 308.131 122.259C304.031 128.461 305.713 136.66 311.915 140.655Z" fill="#0033AD"/>
<path d="M339.037 93.8766C343.032 96.5047 348.288 95.3483 350.916 91.3537C353.544 87.3591 352.388 82.103 348.393 79.4749C344.398 76.8469 339.142 78.0032 336.514 81.8927C333.991 85.8874 335.148 91.2486 339.037 93.8766Z" fill="#0033AD"/>
<path d="M313.911 223.492C299.299 222.651 286.684 233.899 285.949 248.511C285.108 263.123 296.356 275.737 310.968 276.473C311.493 276.473 312.019 276.473 312.439 276.473C327.051 276.473 338.93 264.594 338.93 249.877C339.035 235.896 327.997 224.227 313.911 223.492Z" fill="#0033AD"/>
<path d="M194.81 207.933C199.33 216.868 208.476 222.545 218.567 222.545C233.179 222.545 245.058 210.666 245.058 195.949C245.058 191.849 244.112 187.75 242.22 183.965C235.597 170.825 219.619 165.569 206.583 172.192C193.443 178.919 188.187 194.898 194.81 207.933Z" fill="#0033AD"/>
<path d="M402.846 173.978C408.207 171.245 410.309 164.623 407.576 159.261C404.843 153.9 398.22 151.798 392.859 154.531C387.498 157.264 385.395 163.782 388.023 169.143C390.862 174.504 397.379 176.712 402.846 173.978Z" fill="#0033AD"/>
<path d="M335.567 182.388C327.894 186.277 324.74 195.633 328.629 203.307C332.519 210.981 341.875 214.135 349.549 210.245C357.223 206.356 360.376 197 356.487 189.326C352.597 181.652 343.241 178.604 335.567 182.388Z" fill="#0033AD"/>
<path d="M248.843 89.8809C254.835 90.1963 259.986 85.5709 260.406 79.579C260.826 73.587 256.096 68.436 250.104 68.0155C244.112 67.7002 238.961 72.2204 238.541 78.2124C238.225 84.3095 242.851 89.4604 248.843 89.8809Z" fill="#0033AD"/>
<path d="M248.736 158.526C257.356 159.052 264.715 152.429 265.135 143.809C265.661 135.189 259.038 127.831 250.418 127.41C241.798 126.884 234.44 133.507 234.019 142.127C233.599 150.747 240.116 158.106 248.736 158.526Z" fill="#0033AD"/>
<path d="M164.219 317.892C171.893 314.002 175.046 304.647 171.157 296.973C167.267 289.299 157.911 286.145 150.237 290.035C142.563 293.924 139.41 303.28 143.299 310.954C147.189 318.628 156.545 321.782 164.219 317.892Z" fill="#0033AD"/>
<path d="M258.828 181.337C250.839 193.637 254.203 210.036 266.502 218.025C278.801 226.014 295.201 222.65 303.19 210.351C311.179 198.052 307.815 181.653 295.516 173.664C291.206 170.825 286.16 169.354 281.009 169.354C272.074 169.354 263.769 173.874 258.828 181.337Z" fill="#0033AD"/>
<path d="M304.976 292.346C298.353 279.206 282.374 273.95 269.339 280.572C256.199 287.195 250.943 303.174 257.566 316.209C264.188 329.349 280.167 334.605 293.202 327.983C306.237 321.465 311.598 305.697 305.081 292.556C305.081 292.451 305.081 292.451 304.976 292.346Z" fill="#0033AD"/>
<path d="M351.335 290.455C344.082 285.725 334.411 287.722 329.785 294.975C325.055 302.229 327.052 311.9 334.305 316.525C341.559 321.256 351.23 319.259 355.855 312.005C360.586 304.857 358.589 295.186 351.335 290.455Z" fill="#0033AD"/>
<path d="M402.214 250.613C402.635 243.254 397.063 237.052 389.705 236.632C382.346 236.211 376.144 241.783 375.723 249.141C375.303 256.5 380.874 262.702 388.233 263.122C395.486 263.543 401.794 257.866 402.214 250.613Z" fill="#0033AD"/>
<path d="M438.902 241.153C434.171 240.837 430.072 244.517 429.861 249.247C429.651 253.978 433.225 258.077 437.956 258.288C442.686 258.603 446.681 254.924 446.996 250.193C447.206 245.463 443.632 241.468 438.902 241.153Z" fill="#0033AD"/>
<path d="M404.316 326.301C399.271 323.042 392.543 324.409 389.179 329.455C385.92 334.5 387.287 341.228 392.332 344.592C397.378 347.851 404.106 346.484 407.47 341.438C410.834 336.393 409.362 329.56 404.316 326.301Z" fill="#0033AD"/>
<path d="M160.643 406.404C156.648 403.776 151.392 404.932 148.764 408.821C146.136 412.816 147.292 418.072 151.182 420.7C155.176 423.328 160.433 422.172 163.061 418.282C165.794 414.393 164.637 409.032 160.643 406.404Z" fill="#0033AD"/>
<path d="M340.611 405.564C336.406 407.666 334.725 412.922 336.827 417.127C338.929 421.332 344.186 423.014 348.39 420.912C352.595 418.809 354.277 413.658 352.175 409.453C350.072 405.143 344.921 403.356 340.611 405.564Z" fill="#0033AD"/>
<path d="M240.959 318.942C248.948 306.643 245.584 290.244 233.285 282.15C220.985 274.16 204.586 277.524 196.492 289.823C188.397 302.123 191.867 318.522 204.166 326.616C208.476 329.455 213.522 330.926 218.673 330.926C227.713 331.031 236.018 326.511 240.959 318.942Z" fill="#0033AD"/>
<path d="M187.872 359.624C181.775 355.629 173.47 357.311 169.475 363.408C165.481 369.505 167.163 377.81 173.26 381.805C179.357 385.799 187.661 384.117 191.656 378.02C195.756 371.923 194.074 363.618 187.872 359.624Z" fill="#0033AD"/>
<path d="M249.787 410.398C243.795 410.083 238.644 414.708 238.223 420.7C237.803 426.692 242.533 431.843 248.525 432.263C254.517 432.579 259.668 428.059 260.089 422.067C260.404 415.969 255.779 410.819 249.787 410.398Z" fill="#0033AD"/>
<path d="M249.893 341.754C241.273 341.228 233.915 347.851 233.494 356.471C232.968 365.091 239.591 372.45 248.211 372.87C256.831 373.29 264.19 366.773 264.61 358.153C265.136 349.638 258.513 342.174 249.893 341.754Z" fill="#0033AD"/>
<path d="M313.702 358.574C307.184 361.938 304.556 369.927 307.92 376.444C311.284 382.962 319.273 385.59 325.791 382.226C332.308 378.967 334.936 370.978 331.677 364.461C328.313 357.943 320.324 355.21 313.702 358.574Z" fill="#0033AD"/>
</g>
<defs>
<clipPath id="clip0_5215_9401">
<rect width="500" height="500" fill="white"/>
</clipPath>
</defs>
</svg>
