<svg width="426" height="426" viewBox="0 0 426 426" fill="none" xmlns="http://www.w3.org/2000/svg">
<rect width="426" height="426" rx="213" fill="black"/>
<path d="M128.007 390.293L137.205 347.952C147.464 300.727 111.355 256.121 62.8657 256.121H20.7314C34.0191 315.458 74.2716 364.661 128.007 390.293Z" fill="url(#paint0_linear_2892_210)"/>
<path d="M146.478 397.976C167.234 405.388 189.604 409.426 212.918 409.426C306.879 409.426 385.47 343.851 405.115 256.121H276.578C218.639 256.121 168.546 296.389 156.288 352.817L146.478 397.976Z" fill="url(#paint1_linear_2892_210)"/>
<path d="M408.469 236.496C409.376 228.855 409.844 221.079 409.844 213.193C409.844 110.25 330.293 25.8208 229.108 17.6172L201.508 144.666C191.249 191.891 227.358 236.496 275.847 236.496H408.469Z" fill="url(#paint2_linear_2892_210)"/>
<path d="M209.096 17C102.104 19.0322 16 106.093 16 213.193C16 221.079 16.4667 228.855 17.374 236.496H62.1277C120.066 236.496 170.16 196.228 182.418 139.8L209.096 17Z" fill="url(#paint3_linear_2892_210)"/>
<defs>
<linearGradient id="paint0_linear_2892_210" x1="248.291" y1="17.0028" x2="171.023" y2="410.048" gradientUnits="userSpaceOnUse">
<stop stop-color="#F4D5B1"/>
<stop offset="1" stop-color="#FFD29F"/>
</linearGradient>
<linearGradient id="paint1_linear_2892_210" x1="248.282" y1="17.0028" x2="171.014" y2="410.048" gradientUnits="userSpaceOnUse">
<stop stop-color="#F4D5B1"/>
<stop offset="1" stop-color="#FFD29F"/>
</linearGradient>
<linearGradient id="paint2_linear_2892_210" x1="248.284" y1="17" x2="171.016" y2="410.045" gradientUnits="userSpaceOnUse">
<stop stop-color="#F4D5B1"/>
<stop offset="1" stop-color="#FFD29F"/>
</linearGradient>
<linearGradient id="paint3_linear_2892_210" x1="248.285" y1="17" x2="171.017" y2="410.045" gradientUnits="userSpaceOnUse">
<stop stop-color="#F4D5B1"/>
<stop offset="1" stop-color="#FFD29F"/>
</linearGradient>
</defs>
</svg>
