<svg width="406" height="406" viewBox="0 0 406 406" fill="none" xmlns="http://www.w3.org/2000/svg">
<rect width="406" height="406" rx="203" fill="#181615"/>
<g clip-path="url(#clip0_10188_329)">
<mask id="mask0_10188_329" style="mask-type:luminance" maskUnits="userSpaceOnUse" x="107" y="64" width="192" height="279">
<path d="M299 64H107V343H299V64Z" fill="white"/>
</mask>
<g mask="url(#mask0_10188_329)">
<path fill-rule="evenodd" clip-rule="evenodd" d="M221.188 85.9372C231.339 85.9372 240.86 87.2967 249.675 89.8178C241.044 69.7224 223.125 64 203.181 64C183.199 64 165.248 69.7449 156.636 89.9362C165.387 87.3263 174.867 85.9372 184.983 85.9372H221.188ZM182.662 106.112C134.462 106.112 107 143.993 107 190.722V238.724C107 243.397 110.907 247.094 115.727 247.094H290.273C295.092 247.094 299 243.397 299 238.724V190.722C299 143.993 267.065 106.112 218.866 106.112H182.662ZM202.932 191.137C219.802 191.137 233.477 177.475 233.477 160.622C233.477 143.768 219.802 130.106 202.932 130.106C186.062 130.106 172.386 143.768 172.386 160.622C172.386 177.475 186.062 191.137 202.932 191.137ZM107 275.308C107 270.636 110.907 266.847 115.727 266.847H290.273C295.092 266.847 299 270.636 299 275.308V326.073C299 335.42 291.186 342.996 281.545 342.996H124.455C114.815 342.996 107 335.42 107 326.073V275.308Z" fill="#E33E3F"/>
</g>
</g>
<defs>
<clipPath id="clip0_10188_329">
<rect width="192" height="279" fill="white" transform="translate(107 64)"/>
</clipPath>
</defs>
</svg>
