<svg width="362" height="362" viewBox="0 0 362 362" fill="none" xmlns="http://www.w3.org/2000/svg">
<g clip-path="url(#clip0_9572_11755)">
<path d="M362 362H0V0H362V362Z" fill="#C26A44"/>
<path d="M277.977 252.108C277.977 253.822 277.296 255.466 276.084 256.679C274.871 257.891 273.227 258.572 271.513 258.572H206.87C205.155 258.572 203.511 257.891 202.299 256.679C201.087 255.466 200.406 253.822 200.406 252.108V193.929C200.406 192.215 201.087 190.57 202.299 189.358C203.511 188.146 205.155 187.465 206.87 187.465H271.513C273.227 187.465 274.871 188.146 276.084 189.358C277.296 190.57 277.977 192.215 277.977 193.929V252.108ZM161.607 252.108C161.607 253.822 160.926 255.466 159.714 256.679C158.501 257.891 156.857 258.572 155.143 258.572H90.5063C88.7918 258.572 87.1476 257.891 85.9353 256.679C84.723 255.466 84.042 253.822 84.042 252.108V193.929C84.042 192.215 84.723 190.57 85.9353 189.358C87.1476 188.146 88.7918 187.465 90.5063 187.465H155.143C156.857 187.465 158.501 188.146 159.714 189.358C160.926 190.57 161.607 192.215 161.607 193.929V252.108ZM219.786 148.679C219.786 150.393 219.104 152.038 217.892 153.25C216.68 154.462 215.036 155.143 213.321 155.143H148.685C146.97 155.143 145.326 154.462 144.114 153.25C142.902 152.038 142.221 150.393 142.221 148.679V90.5004C142.221 88.786 142.902 87.1418 144.114 85.9295C145.326 84.7172 146.97 84.0361 148.685 84.0361H213.321C215.036 84.0361 216.68 84.7172 217.892 85.9295C219.104 87.1418 219.786 88.786 219.786 90.5004V148.679Z" stroke="white" stroke-width="12.9286"/>
<path d="M148.679 90.5H213.321L148.679 148.679V90.5ZM90.5 193.929H155.143L90.5 252.107V193.929ZM206.857 193.929H271.5L206.857 252.107V193.929Z" fill="white"/>
</g>
<defs>
<clipPath id="clip0_9572_11755">
<rect width="362" height="362" rx="181" fill="white"/>
</clipPath>
</defs>
</svg>
