<svg version="1.2" xmlns="http://www.w3.org/2000/svg" viewBox="0 0 1509 1498" width="1509" height="1498">
	<title>67116d0daddc92483c813397_primary-logo</title>
	<defs>
		<linearGradient id="g1" x2="1" gradientUnits="userSpaceOnUse" gradientTransform="matrix(1054.384,-1061.014,532.835,529.505,488.611,1545.699)">
			<stop offset="0" stop-color="#b090f5"/>
			<stop offset="1" stop-color="#5fbfff"/>
		</linearGradient>
		<linearGradient id="g2" x2="1" gradientUnits="userSpaceOnUse" gradientTransform="matrix(1271.271,0,0,1194.158,0,597.005)">
			<stop offset="0" stop-color="#68d7fa"/>
			<stop offset="1" stop-color="#7ef1b3"/>
		</linearGradient>
	</defs>
	<style>
		.s0 { fill: url(#g1) } 
		.s1 { fill: url(#g2) } 
	</style>
	<path class="s0" d="m1409.3 377.5l-32.7-56.7c-2.6-4.4-6.1-8.2-10.4-11.1-4.3-2.8-9.1-4.7-14.3-5.3-5.1-0.7-10.3-0.2-15.1 1.4-4.9 1.7-9.3 4.4-13 8l-74.7 74.2c-5.5 5.4-8.9 12.6-9.6 20.3-0.8 7.7 1.1 15.4 5.4 21.8 27.3 41.4 49.2 86.1 65.1 133 29.6 87.6 37.9 181 24.1 272.4-13.9 91.4-49.4 178.2-103.7 253.3-54.3 75-125.8 136.2-208.6 178.4-82.8 42.2-174.5 64.3-267.6 64.4-95.8 0.2-190.3-23-274.9-67.8l126.6-125.7c63.4 23.8 131.7 32 199 23.9 67.3-8.2 131.6-32.4 187.4-70.7 55.8-38.2 101.4-89.4 132.9-149 31.5-59.6 47.9-125.9 47.9-193.3q0-21.6-2.4-43c-4.9-48.1-18.3-94.9-39.5-138.3-2.3-4.7-5.8-8.8-10.1-12-4.2-3.1-9.2-5.2-14.4-6.1-5.2-0.8-10.6-0.5-15.7 1.1-5 1.6-9.6 4.4-13.4 8.1l-75.8 75.3c-4.1 3.9-7 8.9-8.6 14.3-1.5 5.5-1.7 11.2-0.4 16.8l6.4 27c11.2 47.3 8.2 96.8-8.5 142.5-16.8 45.6-46.6 85.5-85.8 114.6-39.2 29-86.1 46.1-134.9 49.1-48.9 3-97.5-8.3-140-32.4l-33.4-18.9c-6.3-3.7-13.7-5.1-21-4.2-7.3 1-14.1 4.3-19.4 9.4l-309.2 306.8c-3.4 3.3-6 7.4-7.7 11.8-1.7 4.4-2.4 9.2-2 13.9 0.3 4.7 1.6 9.3 3.8 13.5 2.3 4.2 5.4 7.8 9.2 10.7l45.5 34.7c131.4 100.5 292.6 154.8 458.4 154.3 415.9 0 754.2-336 754.2-749 0.1-130.3-34.1-258.3-99.1-371.5z"/>
	<path class="s1" d="m1212.6 154.3c-131.3-100.5-292.6-154.8-458.4-154.3-415.9 0-754.2 336-754.2 749 0 130.3 34.2 258.4 99.2 371.5l32.7 56.7c2.5 4.5 6.1 8.4 10.4 11.2 4.3 2.9 9.2 4.8 14.3 5.5 5.2 0.6 10.4 0.1 15.3-1.6 5-1.6 9.4-4.4 13-8.1l74.7-74.1c5.5-5.5 8.9-12.7 9.7-20.4 0.7-7.7-1.2-15.4-5.5-21.8-27.3-41.4-49.2-86.1-65.1-132.9-29.6-87.6-37.9-181-24.1-272.4 13.8-91.4 49.3-178.2 103.6-253.3 54.3-75 125.7-136.2 208.5-178.5 82.8-42.2 174.5-64.3 267.5-64.4 95.9-0.2 190.3 23.1 275 67.8l-126.8 125.7c-63.4-23.8-131.7-32-199-23.9-67.3 8.2-131.6 32.4-187.4 70.7-55.8 38.3-101.4 89.4-132.9 149-31.5 59.7-47.9 126-47.9 193.3 0 6.9 1.9 38.5 2.5 43.9 5.1 47.7 18.4 94.2 39.4 137.4 2.4 4.8 5.8 9 10.1 12.2 4.3 3.2 9.3 5.3 14.6 6.2 5.3 0.9 10.7 0.5 15.8-1.1 5.1-1.6 9.7-4.4 13.5-8.2l75.8-75.2c4.1-4 7-9 8.6-14.5 1.6-5.5 1.7-11.3 0.3-16.8l-6.2-26.8c-4.4-18.7-6.7-37.9-6.7-57.1 0-43.7 11.6-86.6 33.5-124.4 22-37.9 53.5-69.4 91.6-91.3 38-21.9 81.2-33.6 125.2-33.7 44-0.2 87.3 11.2 125.5 32.8l33.4 19c6.3 3.6 13.7 5.1 21 4.2 7.3-1 14.1-4.3 19.3-9.5l309-306.9c3.4-3.3 6-7.4 7.7-11.8 1.7-4.4 2.4-9.2 2.1-13.9-0.3-4.7-1.6-9.3-3.9-13.5-2.2-4.2-5.4-7.9-9.1-10.8z"/>
</svg>