<svg width="400" height="400" viewBox="0 0 400 400" fill="none" xmlns="http://www.w3.org/2000/svg">
<path d="M370 140C370 200.751 320.751 250 260 250C199.249 250 150 200.751 150 140C150 79.249 199.249 30 260 30C320.751 30 370 79.249 370 140Z" fill="#B31942"/>
<path d="M158.436 182.308H361.563C359.094 188.228 356.127 193.888 352.706 199.231H167.292C163.871 193.888 160.904 188.228 158.435 182.308H158.436ZM152.949 165.385H367.051C368.349 159.891 369.24 154.24 369.68 148.462H150.321C150.761 154.24 151.651 159.891 152.949 165.385ZM201.362 233.077H318.638C326.225 228.287 333.187 222.598 339.372 216.154H180.629C186.813 222.598 193.775 228.287 201.363 233.077H201.362ZM180.629 63.8459H339.372C333.188 57.4019 326.226 51.7129 318.638 46.9229H201.362C193.775 51.7129 186.814 57.4019 180.629 63.8459ZM150.321 131.538H369.68C369.24 125.76 368.349 120.109 367.051 114.615H152.949C151.651 120.109 150.761 125.76 150.321 131.538ZM158.436 97.6919H361.563C359.094 91.7719 356.127 86.1117 352.706 80.7687H167.292C163.871 86.1117 160.904 91.7719 158.435 97.6919H158.436Z" fill="white"/>
<path d="M150 140C150 142.847 150.108 145.669 150.321 148.462H260V30C199.249 30 150 79.249 150 140Z" fill="#0A3161"/>
<path d="M246.076 35.6533L247.631 40.3933H252.642L248.594 43.3553L250.149 48.1193L246.076 45.1573L242.028 48.1193L243.586 43.3553L239.535 40.3933H244.546L246.076 35.6533ZM220.749 43.3553L224.773 40.3933H219.786L218.971 37.9743C218.406 38.1963 217.811 38.4183 217.243 38.6653L216.678 40.3933H213.392C213.022 40.5663 212.676 40.7393 212.331 40.8873L215.713 43.3563L214.553 46.9353L214.183 48.1203L215.788 46.9353L218.232 45.1583L220.676 46.9353L222.281 48.1203L221.911 46.9353L220.751 43.3563L220.749 43.3553ZM244.546 64.0913H239.535L243.586 67.0293L242.028 71.7933L246.076 68.8553L250.149 71.7933L248.594 67.0293L252.642 64.0913H247.631L246.076 59.3273L244.546 64.0913ZM216.678 64.0913H211.664L215.737 67.0293L214.182 71.7933L218.23 68.8553L222.278 71.7933L220.723 67.0293L224.771 64.0913H219.784L218.229 59.3273L216.676 64.0913H216.678ZM188.83 64.0913H183.819L187.867 67.0293L186.314 71.7933L190.385 68.8553L194.433 71.7933L192.878 67.0293L196.929 64.0913H191.915L190.384 59.3273L188.83 64.0913ZM244.546 87.7903H239.535L243.586 90.7283L242.028 95.4923L246.076 92.5543L250.149 95.4923L248.594 90.7283L252.642 87.7903H247.631L246.076 83.0263L244.546 87.7903ZM216.678 87.7903H211.664L215.737 90.7283L214.182 95.4923L218.23 92.5543L222.278 95.4923L220.723 90.7283L224.771 87.7903H219.784L218.229 83.0263L216.676 87.7903H216.678ZM188.83 87.7903H183.819L187.867 90.7283L186.314 95.4923L190.385 92.5543L194.433 95.4923L192.878 90.7283L196.929 87.7903H191.915L190.384 83.0263L188.83 87.7903ZM169.056 87.7903H164.069L163.748 86.8273C162.368 89.2963 161.082 91.8633 159.899 94.4553L162.513 92.5543L166.564 95.4923L165.031 90.7283L169.055 87.7903H169.056ZM244.546 111.463H239.535L243.586 114.425L242.028 119.165L246.076 116.227L250.149 119.165L248.594 114.425L252.642 111.463H247.631L246.076 106.699L244.546 111.463ZM216.678 111.463H211.664L215.737 114.425L214.182 119.165L218.23 116.227L222.278 119.165L220.723 114.425L224.771 111.463H219.784L218.229 106.699L216.676 111.463H216.678ZM188.83 111.463H183.819L187.867 114.425L186.314 119.165L190.385 116.227L194.433 119.165L192.878 114.425L196.929 111.463H191.915L190.384 106.699L188.83 111.463ZM160.96 111.463H155.973L160.021 114.425L158.466 119.165L162.514 116.227L166.565 119.165L165.007 114.425L169.08 111.463H164.069L162.514 106.699L160.96 111.463ZM244.546 135.162H239.535L243.586 138.1L242.028 142.864L246.076 139.926L250.149 142.864L248.594 138.1L252.642 135.162H247.631L246.076 130.398L244.546 135.162ZM216.678 135.162H211.664L215.737 138.1L214.182 142.864L218.23 139.926L222.278 142.864L220.723 138.1L224.771 135.162H219.784L218.229 130.398L216.676 135.162H216.678ZM188.83 135.162H183.819L187.867 138.1L186.314 142.864L190.385 139.926L194.433 142.864L192.878 138.1L196.929 135.162H191.915L190.384 130.398L188.83 135.162ZM160.96 135.162H155.973L160.021 138.1L158.466 142.864L162.514 139.926L166.565 142.864L165.007 138.1L169.08 135.162H164.069L162.514 130.398L160.96 135.162ZM230.623 123.312H225.612L229.66 126.25L228.105 131.014L232.153 128.076L236.201 131.014L234.67 126.25L238.718 123.312H233.709L232.151 118.548L230.62 123.312H230.623ZM202.753 123.312H197.742L201.79 126.25L200.259 131.014L204.307 128.076L208.355 131.014L206.802 126.25L210.848 123.312H205.837L204.306 118.548L202.751 123.312H202.753ZM174.907 123.312H169.896L173.944 126.25L172.389 131.014L176.44 128.076L180.486 131.014L178.955 126.25L183.003 123.312H177.992L176.439 118.548L174.907 123.312ZM155.134 123.312H151.261C150.962 125.361 150.691 127.41 150.52 129.483L152.641 131.014L151.086 126.25L155.134 123.312ZM230.623 99.6393H225.612L229.66 102.577L228.105 107.341L232.153 104.379L236.201 107.341L234.67 102.577L238.718 99.6393H233.709L232.151 94.8753L230.62 99.6393H230.623ZM202.753 99.6393H197.742L201.79 102.577L200.259 107.341L204.307 104.379L208.355 107.341L206.802 102.577L210.848 99.6393H205.837L204.306 94.8753L202.751 99.6393H202.753ZM174.907 99.6393H169.896L173.944 102.577L172.389 107.341L176.44 104.379L180.486 107.341L178.955 102.577L183.003 99.6393H177.992L176.439 94.8753L174.907 99.6393ZM230.623 75.9403H225.612L229.66 78.8783L228.105 83.6423L232.153 80.7043L236.201 83.6423L234.67 78.8783L238.718 75.9403H233.709L232.151 71.1763L230.62 75.9403H230.623ZM202.753 75.9403H197.742L201.79 78.8783L200.259 83.6423L204.307 80.7043L208.355 83.6423L206.802 78.8783L210.848 75.9403H205.837L204.306 71.1763L202.751 75.9403H202.753ZM178.955 78.8783L183.003 75.9403H177.992L176.439 71.1763L174.881 75.9403H170.66C170.561 76.0633 170.463 76.1873 170.388 76.3103L173.943 78.8773L173.326 80.7783L172.388 83.6423L176.313 80.7783L176.439 80.7043L176.56 80.7783L180.51 83.6423L179.572 80.7783L178.955 78.8783ZM230.623 52.2423H225.612L229.66 55.2043L228.105 59.9443L232.153 57.0063L236.201 59.9443L234.67 55.2043L238.718 52.2423H233.709L232.151 47.4783L230.62 52.2423H230.623ZM202.753 52.2423H197.742L201.79 55.2043L200.259 59.9443L204.307 57.0063L208.355 59.9443L206.802 55.2043L210.848 52.2423H205.837L204.306 47.4783L202.751 52.2423H202.753Z" fill="white"/>
<path opacity="0.15" d="M260 250C199.358 250 150 200.642 150 140C150 79.358 199.358 30 260 30C320.642 30 370 79.333 370 140C370 200.667 320.669 250 260 250Z" fill="url(#paint0_linear_7937_11066)"/>
<path d="M256 260C256 324.065 204.065 376 140 376C75.9346 376 24 324.065 24 260C24 195.935 75.9346 144 140 144C204.065 144 256 195.935 256 260Z" fill="white"/>
<path d="M140 370C79.358 370 30 320.642 30 260C30 199.358 79.358 150 140 150C200.642 150 250 199.333 250 260C250 320.667 200.669 370 140 370Z" fill="#003399"/>
<path d="M143.082 194.988H153.055L144.987 200.851L148.069 210.336L140.001 204.473L131.933 210.336L135.015 200.851L126.947 194.988H136.92L140.002 185.503L143.084 194.988H143.082ZM143.082 319.149L140 309.664L136.918 319.149H126.945L135.013 325.012L131.931 334.497L139.999 328.634L148.067 334.497L144.985 325.012L153.053 319.149H143.08H143.082ZM78.055 266.554L86.123 272.416L83.041 262.932L91.109 257.07H81.137L78.055 247.585L74.973 257.07H65L73.068 262.932L69.986 272.416L78.055 266.554ZM107.631 194.176L104.549 203.661H94.576L102.645 209.523L99.563 219.007L107.631 213.145L115.699 219.007L112.617 209.523L120.685 203.661H110.713L107.631 194.176ZM83.935 217.871L80.853 227.356H70.881L78.949 233.218L75.867 242.702L83.935 236.84L92.003 242.702L88.921 233.218L96.989 227.356H87.017L83.935 217.871ZM87.017 286.781L83.935 277.296L80.853 286.781H70.88L78.948 292.644L75.866 302.129L83.934 296.266L92.002 302.129L88.92 292.644L96.988 286.781H87.015H87.017ZM110.713 310.478L107.631 300.993L104.549 310.478H94.576L102.645 316.34L99.563 325.824L107.631 319.962L115.699 325.824L112.617 316.34L120.685 310.478H110.713ZM215 257.07H205.027L201.945 247.585L198.863 257.07H188.891L196.959 262.932L193.877 272.416L201.946 266.554L210.014 272.416L206.932 262.932L215 257.07ZM172.369 194.176L169.287 203.661H159.315L167.383 209.523L164.301 219.007L172.369 213.145L180.437 219.007L177.355 209.523L185.424 203.661H175.451L172.369 194.176ZM191.079 233.219L187.997 242.703L196.065 236.841L204.133 242.703L201.051 233.219L209.119 227.357H199.147L196.065 217.872L192.983 227.357H183.011L191.079 233.219ZM199.147 286.781L196.065 277.296L192.983 286.781H183.01L191.078 292.644L187.996 302.129L196.064 296.266L204.132 302.129L201.05 292.644L209.118 286.781H199.145H199.147ZM175.451 310.478L172.369 300.993L169.287 310.478H159.315L167.383 316.34L164.301 325.824L172.369 319.962L180.437 325.824L177.355 316.34L185.424 310.478H175.451Z" fill="#FFCC00"/>
<path opacity="0.15" d="M140 370C79.358 370 30 320.642 30 260C30 199.358 79.358 150 140 150C200.642 150 250 199.333 250 260C250 320.667 200.669 370 140 370Z" fill="url(#paint1_linear_7937_11066)"/>
<defs>
<linearGradient id="paint0_linear_7937_11066" x1="260" y1="30" x2="260" y2="250" gradientUnits="userSpaceOnUse">
<stop stop-color="white"/>
<stop offset="1"/>
</linearGradient>
<linearGradient id="paint1_linear_7937_11066" x1="140" y1="150" x2="140" y2="370" gradientUnits="userSpaceOnUse">
<stop stop-color="white"/>
<stop offset="1"/>
</linearGradient>
</defs>
</svg>
