<svg width="300" height="300" viewBox="0 0 300 300" fill="none" xmlns="http://www.w3.org/2000/svg">
<g clip-path="url(#clip0_4333_7616)">
<mask id="mask0_4333_7616" style="mask-type:luminance" maskUnits="userSpaceOnUse" x="0" y="0" width="300" height="300">
<path fill-rule="evenodd" clip-rule="evenodd" d="M0 0H300V300H0V0Z" fill="white"/>
</mask>
<g mask="url(#mask0_4333_7616)">
<path fill-rule="evenodd" clip-rule="evenodd" d="M150 300C67.5 300 0 232.5 0 149.25C0.75 66.7503 67.5 -0.749669 150.75 0.000330805C233.25 0.750331 300 67.5003 300 151.5C299.25 233.25 232.5 300 150 300Z" fill="white"/>
</g>
<path d="M229.075 189.026C212.192 189.026 194.367 177.989 185.618 169.982C176.049 161.222 149.763 132.709 149.647 132.581C132.409 113.349 109.232 92 86.1096 92C58.2612 92 33.9702 111.288 27.6536 136.837C28.1356 135.152 36.9899 111.748 70.2241 111.748C87.1072 111.748 104.932 122.785 113.681 130.792C123.25 139.552 149.536 168.065 149.652 168.192C166.89 187.425 190.067 208.774 213.195 208.774C241.043 208.774 265.329 189.486 271.651 163.937C271.169 165.621 262.315 189.026 229.081 189.026H229.075Z" fill="#29AAE1"/>
<path d="M149.644 168.197C149.584 168.125 142.015 159.919 133.526 150.965C128.938 156.412 122.328 163.831 114.731 170.486C100.569 182.897 91.3656 185.502 86.1018 185.502C66.2434 185.502 50.0418 169.749 50.0418 150.389C50.0418 131.029 66.2213 115.398 86.1018 115.277C86.822 115.277 87.6975 115.349 88.7503 115.537C82.7773 113.243 76.433 111.747 70.216 111.747C36.9931 111.747 28.1388 135.141 27.6512 136.836C26.5762 141.191 26 145.724 26 150.389C26 182.587 52.5574 208.779 85.6752 208.779C99.4829 208.779 114.947 201.703 130.872 187.74C138.402 181.141 144.929 174.082 149.833 168.408C149.772 168.336 149.705 168.269 149.644 168.197Z" fill="url(#paint0_linear_4333_7616)"/>
<path d="M149.645 132.581C149.706 132.653 157.274 140.859 165.763 149.813C170.351 144.367 176.961 136.947 184.558 130.293C198.72 117.881 207.923 115.277 213.187 115.277C233.046 115.277 249.247 131.03 249.247 150.39C249.247 169.639 233.068 185.38 213.187 185.502C212.467 185.502 211.591 185.43 210.539 185.242C216.512 187.536 222.856 189.032 229.073 189.032C262.302 189.032 271.156 165.638 271.643 163.942C272.718 159.587 273.295 155.055 273.295 150.39C273.295 118.192 246.305 92 213.187 92C199.38 92 184.347 99.0757 168.417 113.039C160.887 119.638 154.36 126.697 149.456 132.371C149.517 132.443 149.584 132.509 149.645 132.581Z" fill="url(#paint1_linear_4333_7616)"/>
</g>
<defs>
<linearGradient id="paint0_linear_4333_7616" x1="117.264" y1="201.138" x2="35.9347" y2="116.917" gradientUnits="userSpaceOnUse">
<stop offset="0.22" stop-color="#EC1E79"/>
<stop offset="0.89" stop-color="#522784"/>
</linearGradient>
<linearGradient id="paint1_linear_4333_7616" x1="181.976" y1="99.6907" x2="263.305" y2="183.912" gradientUnits="userSpaceOnUse">
<stop offset="0.21" stop-color="#F05A24"/>
<stop offset="0.68" stop-color="#FAAF3B"/>
</linearGradient>
<clipPath id="clip0_4333_7616">
<rect width="300" height="300" fill="white"/>
</clipPath>
</defs>
</svg>
