<svg width="500" height="500" viewBox="0 0 500 500" fill="none" xmlns="http://www.w3.org/2000/svg">
<g clip-path="url(#clip0_3640_430)">
<rect width="500" height="500" rx="250" fill="#200053"/>
<rect width="508" height="508" rx="254" fill="white"/>
<circle cx="254" cy="254" r="254" fill="#222222"/>
<g clip-path="url(#clip1_3640_430)">
<path d="M74.1074 377.115C92.1997 402.281 115.407 423.337 142.208 438.905C169.009 454.472 198.797 464.198 229.621 467.446C213.763 443.582 190.712 421.628 161.934 404.913C133.157 388.199 102.681 379.068 74.1074 377.115Z" fill="url(#paint0_linear_3640_430)"/>
<path d="M200.603 338.358C145.161 306.148 85.1531 297.939 42.2158 312.44C46.3609 326.14 51.8275 339.405 58.5387 352.047C95.8439 351.183 136.575 361.315 174.475 383.328C212.375 405.341 241.363 435.722 259.102 468.564C273.416 468.125 287.655 466.301 301.618 463.12C292.937 418.644 256.032 370.575 200.603 338.358Z" fill="url(#paint1_linear_3640_430)"/>
<path d="M464.803 207.616C457.754 178.944 444.999 151.987 427.301 128.353C409.602 104.72 387.323 84.8951 361.793 70.0629C336.263 55.2308 308.006 45.6954 278.71 42.026C249.413 38.3566 219.677 40.6284 191.278 48.706C238.722 54.5122 291.385 72.3228 343.031 102.327C394.678 132.331 436.272 169.251 464.803 207.616Z" fill="url(#paint2_linear_3640_430)"/>
<path d="M395.775 312.768C371.489 272.437 329.888 233.817 278.64 204.047C227.393 174.275 173.25 157.269 126.226 156.144C84.8569 155.165 53.8079 167.191 41.0632 189.132C40.9906 189.262 40.889 189.385 40.8092 189.516C39.6624 193.631 38.6754 197.753 37.7754 201.891C55.5716 194.865 76.191 190.953 99.1185 190.517C150.105 189.56 207.165 205.868 259.821 236.459C312.476 267.052 354.942 308.559 379.357 353.31C390.303 373.472 397.132 393.323 399.839 412.287C402.989 409.471 406.081 406.561 409.078 403.535C409.159 403.397 409.209 403.251 409.288 403.107C422.034 381.144 417.105 348.222 395.775 312.768Z" fill="url(#paint3_linear_3640_430)"/>
<path d="M239.651 271.151C161.172 225.558 74.4486 218.416 32.7451 250.234C32.827 260.193 33.5884 270.135 35.0241 279.991C47.2918 276.272 59.9354 273.93 72.7212 273.01C119.324 269.503 170.702 282.488 217.326 309.588C263.95 336.689 300.704 374.91 320.749 417.098C326.291 428.657 330.517 440.8 333.349 453.3C342.624 449.664 351.643 445.403 360.342 440.548C367.323 388.553 318.152 316.752 239.651 271.151Z" fill="url(#paint4_linear_3640_430)"/>
<path d="M436.141 245.263C411.581 204.975 369.616 166.247 318.005 136.28C266.395 106.312 212.041 89.0388 164.866 87.6525C128.903 86.6146 101.048 95.3312 86.6045 111.799C146.576 101.638 225.679 118.716 302.35 163.257C379.023 207.799 433.064 268.067 453.923 325.193C461.072 304.501 454.852 275.986 436.141 245.263Z" fill="url(#paint5_linear_3640_430)"/>
</g>
</g>
<defs>
<linearGradient id="paint0_linear_3640_430" x1="320.47" y1="127.309" x2="121.962" y2="468.563" gradientUnits="userSpaceOnUse">
<stop offset="0.0001" stop-color="#C7F284"/>
<stop offset="1" stop-color="#00BEF0"/>
</linearGradient>
<linearGradient id="paint1_linear_3640_430" x1="320.47" y1="127.309" x2="121.962" y2="468.564" gradientUnits="userSpaceOnUse">
<stop offset="0.0001" stop-color="#C7F284"/>
<stop offset="1" stop-color="#00BEF0"/>
</linearGradient>
<linearGradient id="paint2_linear_3640_430" x1="320.469" y1="127.309" x2="121.962" y2="468.563" gradientUnits="userSpaceOnUse">
<stop offset="0.0001" stop-color="#C7F284"/>
<stop offset="1" stop-color="#00BEF0"/>
</linearGradient>
<linearGradient id="paint3_linear_3640_430" x1="320.47" y1="127.309" x2="121.962" y2="468.563" gradientUnits="userSpaceOnUse">
<stop offset="0.0001" stop-color="#C7F284"/>
<stop offset="1" stop-color="#00BEF0"/>
</linearGradient>
<linearGradient id="paint4_linear_3640_430" x1="320.47" y1="127.309" x2="121.962" y2="468.563" gradientUnits="userSpaceOnUse">
<stop offset="0.0001" stop-color="#C7F284"/>
<stop offset="1" stop-color="#00BEF0"/>
</linearGradient>
<linearGradient id="paint5_linear_3640_430" x1="320.47" y1="127.308" x2="121.962" y2="468.563" gradientUnits="userSpaceOnUse">
<stop offset="0.0001" stop-color="#C7F284"/>
<stop offset="1" stop-color="#00BEF0"/>
</linearGradient>
<clipPath id="clip0_3640_430">
<rect width="500" height="500" rx="250" fill="white"/>
</clipPath>
<clipPath id="clip1_3640_430">
<rect width="441.624" height="441.624" fill="white" transform="translate(32.7451 33.6309)"/>
</clipPath>
</defs>
</svg>
