<svg width="294" height="294" viewBox="0 0 294 294" fill="none" xmlns="http://www.w3.org/2000/svg">
<g clip-path="url(#clip0_7548_405)">
<path d="M0 0H294V294H0V0Z" fill="white"/>
<g clip-path="url(#clip1_7548_405)">
<path d="M147.577 153.25L147.34 153.251L129.153 99.0126L104.679 99.1564L104.217 177.032C108.444 174.783 113.236 172.861 118.452 171.315L118.74 122.696L119.014 116.446L140.391 167.636C143.186 167.383 143.991 167.283 146.878 167.266C149.766 167.25 150.523 167.387 153.315 167.56L175.303 115.547L175.502 121.795L175.211 170.982C180.362 172.466 185.132 174.332 189.379 176.532L189.841 98.6562L165.367 98.8L147.529 153.25H147.577Z" fill="black"/>
<path d="M127.004 206.517C132.259 206.487 136.545 202.201 136.576 196.946C136.607 191.691 132.372 187.455 127.117 187.486C121.862 187.517 117.577 191.802 117.546 197.058C117.514 202.313 121.749 206.548 127.004 206.517Z" fill="black"/>
<path d="M166.297 206.287C171.552 206.257 175.838 201.971 175.869 196.716C175.9 191.46 171.665 187.225 166.41 187.256C161.155 187.287 156.87 191.572 156.839 196.828C156.808 202.083 161.043 206.318 166.297 206.287Z" fill="black"/>
<path d="M147.647 37.6425C87.3374 37.9968 38.0038 87.3302 37.6465 147.642C37.2892 207.955 86.0418 256.712 146.351 256.358C206.66 256.003 255.994 206.67 256.351 146.358C256.708 86.0452 207.956 37.2882 147.647 37.6425ZM146.437 241.777C94.1755 242.084 51.9173 199.821 52.2268 147.557C52.5365 95.2927 95.2983 52.5306 147.56 52.2235C199.822 51.9165 242.08 94.1789 241.77 146.443C241.461 198.708 198.699 241.47 146.437 241.777Z" fill="black"/>
</g>
</g>
<defs>
<clipPath id="clip0_7548_405">
<rect width="294" height="294" rx="147" fill="white"/>
</clipPath>
<clipPath id="clip1_7548_405">
<rect width="220" height="220" fill="white" transform="translate(37 37)"/>
</clipPath>
</defs>
</svg>
