<svg width="508" height="508" viewBox="0 0 508 508" fill="none" xmlns="http://www.w3.org/2000/svg">
<g clip-path="url(#clip0_3419_205)">
<rect width="508" height="508" rx="254" fill="#200053"/>
<rect width="508" height="508" rx="254" fill="#200053"/>
<path d="M254 46.7891C194.163 46.7891 46.791 194.157 46.791 253.998C46.791 313.839 194.163 461.21 254 461.21C313.837 461.21 461.212 313.837 461.212 253.998C461.212 194.16 313.84 46.7891 254 46.7891ZM221.71 372.488C196.477 365.612 128.637 246.941 135.514 221.708C142.391 196.474 261.059 128.634 286.291 135.511C311.526 142.387 379.366 261.056 372.49 286.291C365.613 311.524 246.942 379.365 221.71 372.488Z" fill="white"/>
</g>
<defs>
<clipPath id="clip0_3419_205">
<rect width="508" height="508" rx="254" fill="white"/>
</clipPath>
</defs>
</svg>
