<svg width="290" height="290" viewBox="0 0 290 290" fill="none" xmlns="http://www.w3.org/2000/svg">
<g clip-path="url(#clip0_10628_892)">
<path d="M0 0H290V290H0V0Z" fill="#42A5F5"/>
<path d="M198.184 94.4417C198.184 95.8762 193.332 125.016 178.785 136.994C198.262 75.8351 145.083 41.4287 145.083 41.4287C145.083 41.4287 136.839 86.8551 120.832 104.022C119.946 84.4626 108.714 72.4846 108.714 72.4846C100.625 107.854 72.5002 138.429 72.5002 161.344C72.4173 201.1 104.747 233.036 145 233.036C185.17 233.036 217.5 201.1 217.5 161.344C217.5 132.68 209.339 111.686 198.184 94.4417Z" fill="white"/>
</g>
<defs>
<clipPath id="clip0_10628_892">
<rect width="290" height="290" rx="145" fill="white"/>
</clipPath>
</defs>
</svg>
