<svg width="300" height="300" viewBox="0 0 300 300" fill="none" xmlns="http://www.w3.org/2000/svg">
<g clip-path="url(#clip0_4333_7148)">
<circle cx="150" cy="150" r="150" fill="#00EC97"/>
<path d="M221.194 60.9873C214.473 60.9873 208.232 64.4188 204.712 70.0599L166.778 125.519C165.541 127.347 166.043 129.811 167.899 131.028C169.404 132.016 171.394 131.893 172.765 130.733L210.104 98.8409C210.725 98.2912 211.681 98.3471 212.24 98.9581C212.492 99.238 212.628 99.5996 212.628 99.9712V199.822C212.628 200.646 211.95 201.308 211.112 201.308C210.662 201.308 210.238 201.115 209.954 200.773L97.0823 67.7282C93.4062 63.4566 88.0084 60.9924 82.3264 60.9873H78.3815C67.7048 60.9873 59.0498 69.5101 59.0498 80.0236V220.655C59.0498 231.169 67.7048 239.691 78.3815 239.691C85.1028 239.691 91.3432 236.259 94.8642 230.618L132.799 175.16C134.034 173.331 133.533 170.867 131.676 169.65C130.172 168.663 128.181 168.785 126.811 169.946L89.4717 201.838C88.8512 202.387 87.8947 202.331 87.3364 201.72C87.083 201.44 86.9486 201.078 86.9537 200.707V100.832C86.9537 100.007 87.631 99.345 88.4686 99.345C88.9133 99.345 89.3423 99.5384 89.6268 99.8795L202.483 232.95C206.159 237.222 211.557 239.686 217.24 239.691H221.184C231.86 239.696 240.522 231.179 240.531 220.665V80.0236C240.531 69.5101 231.871 60.9873 221.194 60.9873Z" fill="#080808"/>
</g>
<defs>
<clipPath id="clip0_4333_7148">
<rect width="300" height="300" fill="white"/>
</clipPath>
</defs>
</svg>
