<svg width="500" height="500" viewBox="0 0 500 500" fill="none" xmlns="http://www.w3.org/2000/svg">
<g clip-path="url(#clip0_5509_10558)">
<path d="M250.121 500.122C388.192 500.122 500.121 388.193 500.121 250.122C500.121 112.051 388.192 0.12207 250.121 0.12207C112.05 0.12207 0.121094 112.051 0.121094 250.122C0.121094 388.193 112.05 500.122 250.121 500.122Z" fill="#76B900"/>
<path d="M210.244 213.33V196.895C211.836 196.782 213.447 196.694 215.088 196.646C260.01 195.234 289.507 235.264 289.507 235.264C289.507 235.264 257.666 279.492 223.525 279.492C219.012 279.512 214.526 278.795 210.244 277.368V227.539C227.739 229.653 231.24 237.378 241.772 254.912L265.166 235.186C265.166 235.186 248.076 212.788 219.312 212.788C216.283 212.802 213.258 212.981 210.249 213.325M210.249 159.043V183.594C211.86 183.462 213.477 183.364 215.093 183.306C277.593 181.201 318.301 234.575 318.301 234.575C318.301 234.575 271.528 291.421 222.808 291.421C218.594 291.421 214.388 291.05 210.239 290.312V305.488C213.71 305.93 217.205 306.152 220.703 306.152C266.04 306.152 298.828 282.998 330.566 255.596C335.825 259.814 357.373 270.063 361.816 274.556C331.626 299.829 261.274 320.2 221.392 320.2C217.549 320.2 213.853 319.971 210.229 319.619V340.942H382.559V159.048L210.249 159.043ZM210.249 277.358V290.308C168.306 282.842 156.665 239.258 156.665 239.258C156.665 239.258 176.802 216.948 210.244 213.34V227.539H210.176C192.632 225.435 178.926 241.821 178.926 241.821C178.926 241.821 186.611 269.424 210.254 277.368M135.742 237.358C135.742 237.358 160.596 200.684 210.225 196.895V183.594C155.273 187.988 107.676 234.551 107.676 234.551C107.676 234.551 134.634 312.5 210.244 319.629V305.469C154.761 298.506 135.742 237.358 135.742 237.358Z" fill="white"/>
</g>
<defs>
<clipPath id="clip0_5509_10558">
<rect width="500" height="500" fill="white"/>
</clipPath>
</defs>
</svg>
