<svg width="400" height="400" viewBox="0 0 400 400" fill="none" xmlns="http://www.w3.org/2000/svg">
<rect width="400" height="400" rx="200" fill="white"/>
<path d="M116.324 270.222C90.5588 231.575 90.5588 192.927 116.324 154.28C142.089 115.633 180.736 102.75 232.266 115.633C283.795 128.515 296.678 160.721 270.913 212.251C258.031 263.781 219.383 289.546 154.971 289.546L116.324 270.222Z" fill="white" stroke="black" stroke-width="3.86473"/>
<path d="M232.267 115.633C245.149 102.75 258.031 93.0886 270.914 86.6474C283.796 80.2061 293.458 83.4268 299.899 96.3092C306.341 109.192 303.12 122.074 290.238 134.957C277.355 141.398 264.473 141.398 251.59 134.957C238.708 128.515 232.267 122.074 232.267 115.633Z" fill="white" stroke="black" stroke-width="3.86473"/>
<path d="M270.914 86.6473L261.252 48H280.576L270.914 86.6473Z" fill="#FFD700" stroke="black" stroke-width="1.93237"/>
<path d="M280.575 67.3228C281.863 60.8816 278.643 59.5934 270.913 63.4581Z" fill="white"/>
<path d="M280.575 67.3228C281.863 60.8816 278.643 59.5934 270.913 63.4581" stroke="black" stroke-width="1.93237"/>
<path d="M290.237 67.3228C291.525 60.8816 288.305 59.5934 280.575 63.4581Z" fill="white"/>
<path d="M290.237 67.3228C291.525 60.8816 288.305 59.5934 280.575 63.4581" stroke="black" stroke-width="1.93237"/>
<path d="M274.779 102.106C277.98 102.106 280.576 99.5105 280.576 96.3088C280.576 93.1072 277.98 90.5117 274.779 90.5117C271.577 90.5117 268.981 93.1072 268.981 96.3088C268.981 99.5105 271.577 102.106 274.779 102.106Z" fill="black"/>
<path d="M267.049 99.2073C268.65 99.2073 269.947 97.9095 269.947 96.3087C269.947 94.7079 268.65 93.4102 267.049 93.4102C265.448 93.4102 264.15 94.7079 264.15 96.3087C264.15 97.9095 265.448 99.2073 267.049 99.2073Z" fill="white"/>
<path d="M261.252 86.6465C254.811 93.0877 254.811 99.5289 261.252 105.97C254.811 112.411 254.811 118.853 261.252 125.294C254.811 131.735 254.811 138.176 261.252 144.618" stroke="#FF69B4" stroke-width="3.86473"/>
<path d="M270.914 86.6465C264.473 93.0877 264.473 99.5289 270.914 105.97C264.473 112.411 264.473 118.853 270.914 125.294C264.473 131.735 264.473 138.176 270.914 144.618" stroke="#FF69B4" stroke-width="3.86473"/>
<path d="M154.972 289.545V347.516Z" fill="black"/>
<path d="M154.972 289.545V347.516" stroke="black" stroke-width="3.86473"/>
<path d="M193.619 289.545V347.516Z" fill="black"/>
<path d="M193.619 289.545V347.516" stroke="black" stroke-width="3.86473"/>
<path d="M232.267 289.545V347.516Z" fill="black"/>
<path d="M232.267 289.545V347.516" stroke="black" stroke-width="3.86473"/>
<path d="M270.913 212.251C277.354 238.016 277.354 263.781 270.913 289.546Z" fill="black"/>
<path d="M270.913 212.251C277.354 238.016 277.354 263.781 270.913 289.546" stroke="black" stroke-width="3.86473"/>
<path d="M116.325 270.222C103.442 276.663 100.222 283.104 106.663 289.545C100.222 295.987 103.442 302.428 116.325 308.869" stroke="#FF69B4" stroke-width="3.86473"/>
<path d="M106.662 289.545C113.103 295.986 113.103 302.427 106.662 308.869" stroke="#FF69B4" stroke-width="3.86473"/>
<path d="M154.971 351.381C160.307 351.381 164.633 349.651 164.633 347.516C164.633 345.382 160.307 343.651 154.971 343.651C149.635 343.651 145.31 345.382 145.31 347.516C145.31 349.651 149.635 351.381 154.971 351.381Z" fill="black"/>
<path d="M193.619 351.381C198.955 351.381 203.281 349.651 203.281 347.516C203.281 345.382 198.955 343.651 193.619 343.651C188.283 343.651 183.957 345.382 183.957 347.516C183.957 349.651 188.283 351.381 193.619 351.381Z" fill="black"/>
<path d="M232.266 351.381C237.602 351.381 241.928 349.651 241.928 347.516C241.928 345.382 237.602 343.651 232.266 343.651C226.93 343.651 222.604 345.382 222.604 347.516C222.604 349.651 226.93 351.381 232.266 351.381Z" fill="black"/>
<path d="M270.914 293.41C276.25 293.41 280.576 291.68 280.576 289.545C280.576 287.411 276.25 285.681 270.914 285.681C265.578 285.681 261.252 287.411 261.252 289.545C261.252 291.68 265.578 293.41 270.914 293.41Z" fill="black"/>
<path d="M135.647 212.251C142.089 199.368 148.53 199.368 154.971 212.251" stroke="black" stroke-width="1.93237"/>
<path d="M174.295 231.574C180.736 218.691 187.177 218.691 193.619 231.574" stroke="black" stroke-width="1.93237"/>
</svg>
