<svg width="364" height="364" viewBox="0 0 364 364" fill="none" xmlns="http://www.w3.org/2000/svg">
<g clip-path="url(#clip0_11419_5069)">
<mask id="mask0_11419_5069" style="mask-type:luminance" maskUnits="userSpaceOnUse" x="0" y="0" width="364" height="364">
<path fill-rule="evenodd" clip-rule="evenodd" d="M0 0H364V364H0V0Z" fill="white"/>
</mask>
<g mask="url(#mask0_11419_5069)">
<path fill-rule="evenodd" clip-rule="evenodd" d="M182 364C81.9 364 0 282.1 0 181.09C0.91 80.9897 81.9 -0.910302 182.91 -0.000301748C283.01 0.909698 364 81.8997 364 183.82C363.09 283.01 282.1 364 182 364Z" fill="#C2B8AB"/>
</g>
<path d="M135.781 145.176H230.146L216.387 108.271C215.852 106.757 214.874 105.439 213.58 104.487L135.781 145.176ZM135.521 101.373C138.868 92.3948 146.22 86.6328 154.325 86.6328H210.116C218.228 86.6328 225.587 92.3948 228.928 101.373L242.68 138.278C246.801 149.351 240.141 161.908 230.146 161.908H134.309C124.315 161.908 117.647 149.351 121.768 138.278L135.521 101.373ZM60.3917 240.981H154.565L140.819 204.076C140.281 202.56 139.298 201.241 137.999 200.292L60.3917 240.981ZM60.1315 197.178C63.479 188.2 70.8379 182.438 78.9361 182.438H134.549C142.654 182.438 150.006 188.2 153.353 197.178L167.106 234.083C171.234 245.156 164.566 257.713 154.558 257.713H58.9062C48.9118 257.713 42.2511 245.156 46.3789 234.083L60.1315 197.178ZM305.816 240.981H211.006L289.25 200.298C290.469 201.161 291.461 202.461 292.07 204.083L305.816 240.981ZM229.537 182.438C221.432 182.438 214.08 188.2 210.739 197.178L196.98 234.083C192.866 245.156 199.526 257.713 209.527 257.713H305.816C315.811 257.713 322.478 245.156 318.35 234.083L304.591 197.178C301.271 188.2 293.905 182.438 285.807 182.438H229.537Z" fill="white"/>
</g>
<defs>
<clipPath id="clip0_11419_5069">
<rect width="364" height="364" fill="white"/>
</clipPath>
</defs>
</svg>
