<svg width="500" height="500" viewBox="0 0 500 500" fill="none" xmlns="http://www.w3.org/2000/svg">
<g clip-path="url(#clip0_7372_21235)">
<mask id="mask0_7372_21235" style="mask-type:luminance" maskUnits="userSpaceOnUse" x="0" y="0" width="500" height="500">
<path fill-rule="evenodd" clip-rule="evenodd" d="M0 0H500V500H0V0Z" fill="white"/>
</mask>
<g mask="url(#mask0_7372_21235)">
<path fill-rule="evenodd" clip-rule="evenodd" d="M250 500.001C112.5 500.001 0 387.501 0 248.751C1.25 111.251 112.5 -1.24945 251.25 0.000551342C388.75 1.25055 500 112.501 500 252.501C498.75 388.751 387.5 500.001 250 500.001Z" fill="#ADABB8"/>
</g>
<path d="M186.512 199.417H316.134L297.234 148.723C296.499 146.643 295.156 144.832 293.379 143.525L186.512 199.417ZM186.155 139.248C190.753 126.915 200.852 119 211.985 119H288.621C299.764 119 309.872 126.915 314.461 139.248L333.352 189.942C339.012 205.151 329.863 222.4 316.134 222.4H184.49C170.762 222.4 161.603 205.151 167.264 189.942L186.155 139.248ZM82.9553 331.017H212.314L193.433 280.323C192.693 278.24 191.343 276.429 189.559 275.125L82.9553 331.017ZM82.5979 270.848C87.1961 258.515 97.3045 250.6 108.428 250.6H184.82C195.953 250.6 206.052 258.515 210.65 270.848L229.541 321.542C235.211 336.751 226.052 354 212.305 354H80.9148C67.1862 354 58.0369 336.751 63.707 321.542L82.5979 270.848ZM420.077 331.017H289.843L397.321 275.134C398.995 276.318 400.358 278.104 401.195 280.332L420.077 331.017ZM315.298 250.6C304.164 250.6 294.065 258.515 289.477 270.848L270.576 321.542C264.925 336.751 274.074 354 287.812 354H420.077C433.805 354 442.964 336.751 437.294 321.542L418.394 270.848C413.833 258.515 403.715 250.6 392.591 250.6H315.298Z" fill="white"/>
</g>
<defs>
<clipPath id="clip0_7372_21235">
<rect width="500" height="500" fill="white"/>
</clipPath>
</defs>
</svg>
