<svg width="364" height="364" viewBox="0 0 364 364" fill="none" xmlns="http://www.w3.org/2000/svg">
<g clip-path="url(#clip0_11418_4664)">
<mask id="mask0_11418_4664" style="mask-type:luminance" maskUnits="userSpaceOnUse" x="0" y="0" width="364" height="364">
<path d="M364 0H0V364H364V0Z" fill="white"/>
</mask>
<g mask="url(#mask0_11418_4664)">
<path d="M0 0H364V364H0V0Z" fill="#D6002A"/>
<mask id="mask1_11418_4664" style="mask-type:luminance" maskUnits="userSpaceOnUse" x="36" y="99" width="292" height="166">
<path d="M327.028 99.9131H36.9722V264.087H327.028V99.9131Z" fill="white"/>
</mask>
<g mask="url(#mask1_11418_4664)">
<mask id="mask2_11418_4664" style="mask-type:luminance" maskUnits="userSpaceOnUse" x="36" y="99" width="758" height="165">
<path d="M36.9722 99.9131H793.467V263.97H36.9722V99.9131Z" fill="white"/>
</mask>
<g mask="url(#mask2_11418_4664)">
<path d="M123.148 229.168C123.148 234.214 122.325 238.547 120.66 242.185C118.99 245.817 116.844 248.943 114.223 251.563C110.09 255.695 105.06 258.657 99.1532 260.412C93.2399 262.179 86.9546 263.063 80.2974 263.063C74.543 263.063 68.8611 262.228 63.2528 260.558C57.6445 258.889 52.6211 256.037 48.1831 252.002C44.952 249.077 42.2758 245.476 40.1544 241.198C38.0329 236.901 36.9722 232.184 36.9722 227.047H56.9614C56.9614 229.68 57.4917 232.111 58.5525 234.378C59.6132 236.664 60.9482 238.602 62.5758 240.21C64.8985 242.532 67.6969 244.068 70.9703 244.836C74.2503 245.592 77.4567 245.969 80.5901 245.969C84.3393 245.969 87.8692 245.53 91.1976 244.671C94.526 243.818 97.2025 242.331 99.2263 240.21C100.433 238.912 101.439 237.523 102.262 236.042C103.067 234.58 103.469 232.55 103.469 229.917C103.469 225.987 102.189 223.043 99.6101 221.069C97.0317 219.113 94.0872 217.814 90.7403 217.211C87.1069 216.505 83.1201 216.005 78.7798 215.712C74.4272 215.402 70.4949 214.944 66.9654 214.341C63.2224 213.732 59.7109 212.671 56.431 211.16C53.1515 209.648 50.2738 207.656 47.7989 205.182C45.3239 202.707 43.3548 199.727 41.8918 196.242C40.4287 192.768 39.6972 188.813 39.6972 184.377C39.6972 180.135 40.5567 176.259 42.2758 172.712C43.9949 169.19 46.2689 166.015 49.0973 163.188C52.6211 159.653 57.1625 156.88 62.7224 154.869C68.2819 152.846 74.2379 151.834 80.5901 151.834C86.345 151.834 91.8741 152.718 97.1779 154.485C102.482 156.258 106.962 158.854 110.583 162.273C113.821 165.308 116.417 168.727 118.392 172.566C120.349 176.406 121.392 180.592 121.484 185.126H101.494C101.402 183.206 100.909 181.323 100.067 179.458C99.1898 177.594 98.1105 175.948 96.8121 174.541C95.081 172.725 92.6545 171.311 89.5334 170.299C86.4062 169.294 83.3701 168.782 80.444 168.782C77.4079 168.782 74.3053 169.184 71.1349 169.988C67.9531 170.805 65.2524 172.371 63.0332 174.687C61.9117 175.894 61.0279 177.204 60.3813 178.618C59.7233 180.031 59.394 181.75 59.394 183.773C59.394 187.296 60.3998 189.989 62.4117 191.854C64.4355 193.731 67.0627 194.919 70.2938 195.419C73.7322 195.931 77.5971 196.382 81.8885 196.772C86.1804 197.186 90.088 197.643 93.6118 198.143C97.6532 198.746 101.476 199.843 105.06 201.397C108.645 202.957 111.772 205.023 114.442 207.595C117.112 210.173 119.252 213.28 120.807 216.901C122.361 220.538 123.148 224.615 123.148 229.168Z" fill="white"/>
</g>
<mask id="mask3_11418_4664" style="mask-type:luminance" maskUnits="userSpaceOnUse" x="36" y="99" width="758" height="165">
<path d="M36.9722 99.9131H793.467V263.97H36.9722V99.9131Z" fill="white"/>
</mask>
<g mask="url(#mask3_11418_4664)">
<path fill-rule="evenodd" clip-rule="evenodd" d="M207.715 261.253L200.143 252.77C195.803 256.609 191.029 259.437 185.823 261.253C180.629 263.069 175.253 263.977 169.693 263.977C164.95 263.977 160.408 263.216 156.068 261.692C151.715 260.193 147.929 258.054 144.711 255.275C141.48 252.496 138.901 249.09 136.975 245.055C135.054 241.015 134.104 236.481 134.104 231.435C134.104 224.78 135.841 219.076 139.334 214.323C142.809 209.588 147.436 205.456 153.197 201.928C151.459 200.099 149.905 198.308 148.496 196.534C147.07 194.779 145.863 192.988 144.857 191.159C143.851 189.35 143.065 187.43 142.516 185.419C141.949 183.408 141.675 181.122 141.675 178.618C141.675 174.376 142.461 170.592 144.034 167.264C145.595 163.937 147.686 161.085 150.307 158.708C152.929 156.344 156.037 154.553 159.634 153.333C163.206 152.127 167.017 151.523 171.064 151.523C174.997 151.523 178.764 152.108 182.348 153.26C185.933 154.418 189.091 156.137 191.822 158.416C194.547 160.683 196.705 163.462 198.333 166.734C199.942 170.013 200.747 173.773 200.747 178.014C200.747 181.543 200.253 184.687 199.229 187.466C198.223 190.245 196.815 192.768 194.986 195.035C193.175 197.302 191.017 199.386 188.548 201.306C186.079 203.226 183.372 205.035 180.446 206.754L199.083 227.029C199.985 225.323 200.613 223.33 200.966 221.051C201.332 218.784 201.606 216.389 201.808 213.866C202.015 211.453 202.118 209.082 202.118 206.754V200.721H229.825V215.694H217.408C217.206 219.936 216.658 224.122 215.743 228.254C214.829 232.404 213.22 236.225 210.897 239.772L230.74 261.253H207.715ZM164.243 213.719C162.426 214.841 160.756 215.901 159.232 216.901C157.732 217.925 156.379 219.076 155.227 220.392C154.074 221.709 153.16 223.19 152.502 224.853C151.843 226.517 151.514 228.455 151.514 230.685C151.514 233.403 152.044 235.823 153.105 237.943C154.166 240.064 155.58 241.832 157.348 243.245C159.122 244.653 161.152 245.714 163.475 246.427C165.797 247.121 168.23 247.468 170.754 247.468C173.985 247.468 177.215 247.018 180.446 246.115C183.684 245.202 186.445 243.446 188.768 240.814L164.243 213.719ZM183.043 178.764C183.043 175.034 181.903 172.158 179.623 170.135C177.356 168.124 174.503 167.118 171.064 167.118C167.937 167.118 165.157 168.05 162.743 169.915C160.317 171.78 159.104 174.577 159.104 178.307C159.104 180.025 159.433 181.64 160.091 183.152C160.738 184.675 161.542 186.114 162.506 187.466C163.475 188.838 164.554 190.117 165.761 191.324C166.968 192.53 168.138 193.701 169.254 194.798C170.863 193.901 172.509 192.969 174.173 192.001C175.831 191.05 177.319 189.965 178.636 188.746C179.953 187.54 181.013 186.125 181.818 184.505C182.623 182.914 183.043 180.994 183.043 178.764Z" fill="white"/>
</g>
<mask id="mask4_11418_4664" style="mask-type:luminance" maskUnits="userSpaceOnUse" x="36" y="99" width="758" height="165">
<path d="M36.9722 99.9131H793.467V263.97H36.9722V99.9131Z" fill="white"/>
</mask>
<g mask="url(#mask4_11418_4664)">
<path fill-rule="evenodd" clip-rule="evenodd" d="M324.997 188.161C324.997 193.298 324.192 197.978 322.564 202.238C320.955 206.468 318.559 210.1 315.377 213.134C312.195 216.151 308.226 218.509 303.489 220.173C298.735 221.831 293.279 222.66 287.121 222.66H264.407V261.107H245.021V153.809H287.121C293.279 153.809 298.735 154.637 303.489 156.295C308.232 157.965 312.195 160.287 315.377 163.261C318.559 166.234 320.955 169.842 322.564 174.084C324.186 178.325 324.997 183.017 324.997 188.161ZM305.3 188.307C305.3 183.152 303.801 178.983 300.765 175.747C297.729 172.53 292.937 170.902 286.372 170.902H264.407V205.566H286.372C292.937 205.566 297.729 203.975 300.765 200.794C303.782 197.613 305.3 193.463 305.3 188.307Z" fill="white"/>
</g>
<mask id="mask5_11418_4664" style="mask-type:luminance" maskUnits="userSpaceOnUse" x="36" y="99" width="758" height="165">
<path d="M36.9722 99.9131H793.467V263.97H36.9722V99.9131Z" fill="white"/>
</mask>
<g mask="url(#mask5_11418_4664)">
<path d="M36.9722 99.9131H327.028V117.336H36.9722V99.9131Z" fill="white"/>
</g>
</g>
</g>
</g>
<defs>
<clipPath id="clip0_11418_4664">
<rect width="364" height="364" rx="182" fill="white"/>
</clipPath>
</defs>
</svg>
