<svg width="500" height="500" viewBox="0 0 500 500" fill="none" xmlns="http://www.w3.org/2000/svg">
<g clip-path="url(#clip0_3729_992)">
<circle cx="250" cy="250" r="250" fill="white"/>
<path d="M278.594 338.505V210.596C278.494 195.189 272.307 180.447 261.382 169.583C250.458 158.719 235.681 152.614 220.274 152.6V357.015C220.189 364.287 221.587 371.5 224.382 378.214C227.177 384.928 231.311 391.002 236.531 396.065C241.751 401.129 247.948 405.075 254.744 407.664C261.54 410.253 268.793 411.43 276.059 411.123C290.222 412.081 304.27 408.011 315.727 399.628C282.06 396.064 278.608 375.779 278.608 338.505" fill="black"/>
<path d="M155.271 99.0869C141.135 99.1799 127.61 104.861 117.647 114.89C107.684 124.918 102.092 138.481 102.093 152.617H340.064C354.2 152.524 367.725 146.844 377.688 136.815C387.651 126.786 393.242 113.223 393.242 99.0869H155.271Z" fill="black"/>
</g>
<defs>
<clipPath id="clip0_3729_992">
<rect width="500" height="500" fill="white"/>
</clipPath>
</defs>
</svg>
