<svg width="150" height="150" viewBox="0 0 150 150" fill="none" xmlns="http://www.w3.org/2000/svg">
<rect width="150" height="150" rx="75" fill="url(#paint0_linear_1657_1329)"/>
<path d="M55.0748 26.0776C53.5806 25.847 53.5176 25.82 54.2207 25.7125C55.5682 25.5064 58.7499 25.7873 60.9425 26.3059C66.0612 27.516 70.7188 30.616 75.6906 36.1217L77.0113 37.5844L78.9011 37.2823C86.8612 36.01 94.9593 37.0211 101.733 40.1332C103.596 40.9894 106.534 42.6936 106.901 43.1316C107.017 43.2712 107.232 44.1697 107.378 45.1284C107.881 48.4453 107.629 50.9877 106.609 52.8866C106.054 53.92 106.023 54.2475 106.396 55.1318C106.694 55.8375 107.525 56.3598 108.347 56.3587C110.03 56.3564 111.842 53.6502 112.681 49.8847L113.015 48.3889L113.675 49.1331C117.299 53.216 120.144 58.7841 120.633 62.7474L120.76 63.7808L120.152 62.8413C119.103 61.2248 118.05 60.1244 116.702 59.2369C114.271 57.637 111.7 57.0926 104.893 56.7358C98.7449 56.4136 95.2652 55.8912 91.8151 54.7722C85.9444 52.8686 82.9851 50.3333 76.0121 41.2338C72.9148 37.1921 71.0004 34.9559 69.0962 33.1551C64.7691 29.0632 60.5174 26.9172 55.0748 26.0776Z" fill="#FF37C7"/>
<path d="M108.29 35.0991C108.445 32.3908 108.814 30.6045 109.557 28.9731C109.85 28.3273 110.126 27.7988 110.168 27.7988C110.211 27.7988 110.083 28.2755 109.884 28.8579C109.345 30.4412 109.256 32.6067 109.628 35.1262C110.1 38.323 110.368 38.7843 113.765 42.2375C115.359 43.8572 117.212 45.9001 117.884 46.7771L119.106 48.3719L117.884 47.2322C116.39 45.8385 112.954 43.1204 112.195 42.7319C111.686 42.4713 111.611 42.4757 111.297 42.7865C111.008 43.0728 110.947 43.5031 110.906 45.5371C110.844 48.7072 110.41 50.742 109.361 52.7766C108.794 53.877 108.705 53.6422 109.218 52.4001C109.601 51.4727 109.64 51.065 109.637 47.9961C109.631 41.83 108.895 40.3476 104.579 37.8082C103.486 37.1649 101.684 36.2372 100.575 35.7464C99.4667 35.2557 98.5864 34.8282 98.618 34.7963C98.7407 34.6753 102.95 35.8973 104.644 36.5455C107.164 37.5097 107.58 37.6346 107.886 37.5183C108.092 37.4404 108.191 36.846 108.29 35.0991Z" fill="#FF37C7"/>
<path d="M57.9787 45.6491C54.9454 41.4956 53.0687 35.1273 53.475 30.3667L53.6006 28.8936L54.2911 29.0189C55.5876 29.2541 57.8233 30.0818 58.8701 30.7141C61.7429 32.4494 62.9865 34.7341 64.2518 40.6007C64.6225 42.3191 65.1087 44.2636 65.3325 44.922C65.6926 45.9816 67.0538 48.4568 68.1604 50.0643C68.9575 51.222 68.428 51.7706 66.6661 51.6124C63.9751 51.3708 60.3301 48.8688 57.9787 45.6491Z" fill="#FF37C7"/>
<path d="M104.61 76.5603C90.4345 70.8834 85.4414 65.956 85.4414 57.642C85.4414 56.4186 85.4839 55.4175 85.5358 55.4175C85.587 55.4175 86.1357 55.8212 86.7542 56.3148C89.629 58.6079 92.8479 59.5873 101.759 60.8803C107.003 61.6413 109.954 62.2558 112.676 63.1537C121.327 66.0076 126.681 71.7993 127.957 79.6882C128.328 81.9799 128.111 86.2787 127.509 88.5443C127.035 90.3332 125.585 93.5587 125.201 93.6825C125.095 93.7169 124.99 93.3105 124.963 92.7581C124.817 89.796 123.312 86.9119 120.785 84.7516C117.911 82.2957 114.05 80.3405 104.61 76.5603Z" fill="#FF37C7"/>
<path d="M94.6569 78.9189C94.4791 77.8673 94.1715 76.5251 93.9724 75.9355L93.6108 74.8633L94.2822 75.6137C95.2121 76.6516 95.9467 77.9797 96.5696 79.7484C97.0446 81.0988 97.0981 81.5002 97.0948 83.6938C97.091 85.8476 97.0315 86.2992 96.593 87.5143C95.9009 89.4308 95.0419 90.7894 93.601 92.2478C91.0114 94.869 87.6823 96.3203 82.8785 96.9224C82.0435 97.0266 79.6094 97.2033 77.4698 97.3135C72.077 97.5927 68.5279 98.1692 65.3388 99.2829C64.8803 99.4433 64.4709 99.5403 64.4293 99.4989C64.3003 99.3713 66.4716 98.0841 68.265 97.2246C70.7939 96.0133 73.3112 95.3517 78.9516 94.418C81.7375 93.956 84.615 93.3964 85.3453 93.1734C92.2451 91.0692 95.7919 85.6392 94.6569 78.9189Z" fill="#FF37C7"/>
<path d="M101.157 90.3976C99.2727 86.3709 98.8402 82.4828 99.8721 78.857C99.9828 78.4692 100.16 78.1523 100.267 78.1523C100.374 78.1523 100.818 78.3912 101.255 78.683C102.122 79.2644 103.863 80.2428 108.5 82.7577C114.287 85.8959 117.587 88.3256 119.83 91.1017C121.795 93.5331 123.011 96.3021 123.596 99.6786C123.928 101.591 123.734 106.193 123.24 108.12C121.684 114.192 118.068 118.962 112.911 121.746C112.155 122.153 111.477 122.488 111.403 122.49C111.33 122.492 111.605 121.795 112.015 120.943C113.75 117.335 113.948 113.826 112.636 109.921C111.833 107.529 110.195 104.611 106.889 99.6797C103.045 93.9454 102.102 92.4199 101.157 90.3976Z" fill="#FF37C7"/>
<path d="M47.9138 112.126C53.1742 107.709 59.7194 104.57 65.6815 103.607C68.251 103.192 72.5314 103.356 74.9107 103.962C78.7247 104.933 82.1361 107.107 83.9109 109.698C85.6447 112.229 86.3886 114.436 87.1631 119.345C87.4685 121.281 87.8012 123.226 87.9015 123.666C88.4835 126.21 89.6152 128.244 91.0179 129.265C93.2459 130.887 97.0822 130.988 100.856 129.524C101.496 129.275 102.052 129.103 102.092 129.142C102.228 129.277 100.328 130.543 98.9873 131.209C97.1837 132.105 95.7493 132.451 93.8431 132.451C90.3869 132.451 87.517 130.702 85.1227 127.137C84.6515 126.435 83.5924 124.333 82.7694 122.466C80.2409 116.731 78.9925 114.984 76.0574 113.071C73.5029 111.408 70.2084 111.11 67.73 112.318C64.4745 113.906 63.5662 118.044 65.8979 120.666C66.8246 121.708 68.5528 122.607 69.9659 122.782C72.6095 123.109 74.8814 121.109 74.8814 118.454C74.8814 116.731 74.2153 115.747 72.5384 114.994C70.2481 113.966 67.7862 115.168 67.798 117.308C67.8031 118.22 68.2026 118.793 69.1223 119.207C69.7123 119.473 69.726 119.493 69.2449 119.394C67.1434 118.961 66.6511 116.441 68.3408 114.768C70.3694 112.76 74.5642 113.646 76.0046 116.387C76.6099 117.539 76.68 119.832 76.1524 121.216C74.9716 124.315 71.5285 125.945 68.0358 125.058C65.6578 124.454 64.6895 123.8 61.8224 120.864C56.8404 115.759 54.9064 114.77 47.724 113.655L46.3477 113.441L47.9138 112.126Z" fill="#FF37C7"/>
<path fill-rule="evenodd" clip-rule="evenodd" d="M24.5362 20.7694C41.1738 40.8536 52.6329 49.14 53.9063 50.8907C54.9577 52.3362 54.562 53.6358 52.7608 54.6543C51.7591 55.2206 49.6998 55.7944 48.6687 55.7944C47.5024 55.7944 47.1021 55.3469 47.1021 55.3469C46.4259 54.709 46.045 54.8206 42.5726 48.6901C37.7517 41.2499 33.7172 35.078 33.6072 34.9747C33.3527 34.7357 33.3571 34.7438 42.081 50.269C43.4906 53.5048 42.3614 54.6926 42.3614 55.1535C42.3614 56.0911 42.1043 56.5838 40.9414 57.8739C39.003 60.0247 38.1364 62.4415 37.5109 67.4431C36.8097 73.0496 34.8378 77.0103 29.3732 83.789C26.1744 87.7568 25.651 88.4838 24.8438 90.0834C23.8271 92.0971 23.5476 93.2249 23.4343 95.7681C23.3145 98.4569 23.5478 100.194 24.3737 102.765C25.0968 105.015 25.8516 106.502 27.7811 109.474C29.4462 112.04 30.405 113.946 30.405 114.691C30.405 115.285 30.5189 115.285 33.0992 114.706C39.2742 113.319 44.2882 110.879 47.1083 107.891C48.8535 106.04 49.2633 105.019 49.2766 102.483C49.2853 100.825 49.2266 100.478 48.7759 99.5232C48.0422 97.9704 46.7065 96.6795 43.7626 94.6779C39.9052 92.0551 38.2577 89.9438 37.8026 87.0401C37.4293 84.6573 37.8624 82.9764 39.9963 78.5281C42.205 73.9239 42.7524 71.9616 43.1226 67.3206C43.3617 64.3222 43.6929 63.1396 44.5591 62.1905C45.4624 61.2007 46.2757 60.8655 48.5114 60.5617C52.1562 60.0664 54.477 59.1285 56.3847 57.3801C58.0396 55.8633 58.7321 54.4018 58.8384 52.2017L58.9191 50.5341L57.9942 49.4617C54.6451 45.5777 22.2933 17.7163 22.0872 17.7163C22.0432 17.7163 23.1453 19.0903 24.5362 20.7694ZM32.285 98.8109C33.0423 97.4769 32.6399 95.7621 31.3733 94.9244C30.1765 94.133 28.3174 94.5055 28.3174 95.5374C28.3174 95.8521 28.4924 96.0812 28.8868 96.283C29.5508 96.6228 29.599 97.0051 29.0766 97.7861C28.5474 98.5769 28.5901 99.2723 29.197 99.7452C30.1752 100.507 31.5599 100.088 32.285 98.8109Z" fill="#FF37C7"/>
<path fill-rule="evenodd" clip-rule="evenodd" d="M61.2225 61.4354C59.5114 61.9581 57.8481 63.7618 57.3333 65.653C57.0192 66.8067 57.1974 68.8306 57.6679 69.4557C58.428 70.4652 59.163 70.7312 61.1533 70.7173C65.0499 70.6903 68.4374 69.0281 68.8311 66.9501C69.154 65.2468 67.6662 62.8862 65.617 61.8499C64.5595 61.3153 62.3105 61.1032 61.2225 61.4354ZM65.7777 64.9781C66.3785 64.1289 66.1157 63.2111 65.0937 62.5903C63.1475 61.4083 60.2043 62.3864 60.2043 64.2151C60.2043 65.1254 61.7391 66.1185 63.146 66.1185C64.0824 66.1185 65.3638 65.5632 65.7777 64.9781Z" fill="#FF37C7"/>
<defs>
<linearGradient id="paint0_linear_1657_1329" x1="46.6535" y1="7.08662" x2="272.835" y2="227.953" gradientUnits="userSpaceOnUse">
<stop stop-color="white"/>
<stop offset="1" stop-color="#FF8ADE"/>
</linearGradient>
</defs>
</svg>
