<svg width="400" height="400" viewBox="0 0 400 400" fill="none" xmlns="http://www.w3.org/2000/svg">
<path d="M260 250C199.358 250 150 200.642 150 140C150 79.358 199.358 30 260 30C320.642 30 370 79.333 370 140C370 200.667 320.669 250 260 250Z" fill="white"/>
<path d="M311.334 140C311.334 168.351 288.351 191.333 260.001 191.333C231.651 191.333 208.668 168.35 208.668 140C208.668 111.65 231.651 88.667 260.001 88.667C288.351 88.667 311.334 111.65 311.334 140Z" fill="#E11A27"/>
<path opacity="0.15" d="M260 250C199.358 250 150 200.642 150 140C150 79.358 199.358 30 260 30C320.642 30 370 79.333 370 140C370 200.667 320.669 250 260 250Z" fill="url(#paint0_linear_7701_4913)" fill-opacity="0.4"/>
<path d="M256 260C256 324.065 204.065 376 140 376C75.9346 376 24 324.065 24 260C24 195.935 75.9346 144 140 144C204.065 144 256 195.935 256 260Z" fill="white"/>
<path d="M250 260C250 320.751 200.751 370 140 370C79.249 370 30 320.751 30 260C30 199.249 79.249 150 140 150C200.751 150 250 199.249 250 260Z" fill="#B31942"/>
<path d="M38.4363 302.308H241.563C239.094 308.228 236.127 313.888 232.706 319.231H47.2933C43.8723 313.888 40.9053 308.228 38.4363 302.308ZM32.9493 285.385H247.051C248.349 279.891 249.24 274.24 249.68 268.462H30.3213C30.7613 274.24 31.6513 279.891 32.9493 285.385ZM81.3623 353.077H198.638C206.225 348.287 213.187 342.598 219.372 336.154H60.6293C66.8133 342.598 73.7743 348.287 81.3623 353.077ZM60.6293 183.846H219.372C213.188 177.402 206.226 171.713 198.638 166.923H81.3623C73.7753 171.713 66.8143 177.402 60.6293 183.846ZM30.3213 251.538H249.68C249.24 245.76 248.349 240.109 247.051 234.615H32.9493C31.6513 240.109 30.7613 245.76 30.3213 251.538ZM38.4363 217.692H241.563C239.094 211.772 236.127 206.112 232.706 200.769H47.2933C43.8723 206.112 40.9053 211.772 38.4363 217.692Z" fill="white"/>
<path d="M30 260C30 262.847 30.108 265.669 30.321 268.462H140V150C79.249 150 30 199.249 30 260Z" fill="#0A3161"/>
<path d="M126.076 155.653L127.631 160.393H132.642L128.594 163.355L130.149 168.119L126.076 165.157L122.028 168.119L123.586 163.355L119.535 160.393H124.546L126.077 155.653H126.076ZM100.749 163.355L104.773 160.393H99.7855L98.9705 157.974C98.4055 158.196 97.8105 158.418 97.2425 158.665L96.6775 160.393H93.3915C93.0215 160.566 92.6755 160.739 92.3305 160.887L95.7125 163.356L94.5525 166.935L94.1825 168.12L95.7875 166.935L98.2315 165.158L100.676 166.935L102.281 168.12L101.911 166.935L100.751 163.356L100.749 163.355ZM124.546 184.091H119.535L123.586 187.029L122.028 191.793L126.076 188.855L130.149 191.793L128.594 187.029L132.642 184.091H127.631L126.076 179.327L124.546 184.091ZM96.6775 184.091H91.6635L95.7365 187.029L94.1815 191.793L98.2295 188.855L102.278 191.793L100.723 187.029L104.771 184.091H99.7835L98.2285 179.327L96.6755 184.091H96.6775ZM68.8295 184.091H63.8185L67.8665 187.029L66.3135 191.793L70.3845 188.855L74.4325 191.793L72.8775 187.029L76.9285 184.091H71.9145L70.3835 179.327L68.8295 184.091ZM124.546 207.789H119.535L123.586 210.727L122.028 215.491L126.076 212.553L130.149 215.491L128.594 210.727L132.642 207.789H127.631L126.076 203.025L124.546 207.789ZM96.6775 207.789H91.6635L95.7365 210.727L94.1815 215.491L98.2295 212.553L102.278 215.491L100.723 210.727L104.771 207.789H99.7835L98.2285 203.025L96.6755 207.789H96.6775ZM68.8295 207.789H63.8185L67.8665 210.727L66.3135 215.491L70.3845 212.553L74.4325 215.491L72.8775 210.727L76.9285 207.789H71.9145L70.3835 203.025L68.8295 207.789ZM49.0555 207.789H44.0685L43.7475 206.826C42.3675 209.295 41.0815 211.862 39.8985 214.454L42.5125 212.553L46.5635 215.491L45.0305 210.727L49.0555 207.789ZM124.546 231.463H119.535L123.586 234.425L122.028 239.165L126.076 236.227L130.149 239.165L128.594 234.425L132.642 231.463H127.631L126.076 226.699L124.546 231.463ZM96.6775 231.463H91.6635L95.7365 234.425L94.1815 239.165L98.2295 236.227L102.278 239.165L100.723 234.425L104.771 231.463H99.7835L98.2285 226.699L96.6755 231.463H96.6775ZM68.8295 231.463H63.8185L67.8665 234.425L66.3135 239.165L70.3845 236.227L74.4325 239.165L72.8775 234.425L76.9285 231.463H71.9145L70.3835 226.699L68.8295 231.463ZM40.9595 231.463H35.9725L40.0205 234.425L38.4655 239.165L42.5135 236.227L46.5645 239.165L45.0065 234.425L49.0795 231.463H44.0685L42.5135 226.699L40.9595 231.463ZM124.546 255.162H119.535L123.586 258.1L122.028 262.864L126.076 259.926L130.149 262.864L128.594 258.1L132.642 255.162H127.631L126.076 250.398L124.546 255.162ZM96.6775 255.162H91.6635L95.7365 258.1L94.1815 262.864L98.2295 259.926L102.278 262.864L100.723 258.1L104.771 255.162H99.7835L98.2285 250.398L96.6755 255.162H96.6775ZM68.8295 255.162H63.8185L67.8665 258.1L66.3135 262.864L70.3845 259.926L74.4325 262.864L72.8775 258.1L76.9285 255.162H71.9145L70.3835 250.398L68.8295 255.162ZM40.9595 255.162H35.9725L40.0205 258.1L38.4655 262.864L42.5135 259.926L46.5645 262.864L45.0065 258.1L49.0795 255.162H44.0685L42.5135 250.398L40.9595 255.162ZM110.623 243.312H105.612L109.66 246.25L108.105 251.014L112.153 248.076L116.201 251.014L114.67 246.25L118.718 243.312H113.709L112.151 238.548L110.62 243.312H110.623ZM82.7525 243.312H77.7415L81.7895 246.25L80.2585 251.014L84.3065 248.076L88.3545 251.014L86.8015 246.25L90.8475 243.312H85.8365L84.3055 238.548L82.7505 243.312H82.7525ZM54.9065 243.312H49.8955L53.9435 246.25L52.3885 251.014L56.4395 248.076L60.4855 251.014L58.9545 246.25L63.0025 243.312H57.9915L56.4385 238.548L54.9065 243.312ZM35.1335 243.312H31.2605C30.9615 245.361 30.6905 247.41 30.5195 249.483L32.6405 251.014L31.0855 246.25L35.1335 243.312ZM110.623 219.639H105.612L109.66 222.577L108.105 227.341L112.153 224.379L116.201 227.341L114.67 222.577L118.718 219.639H113.709L112.151 214.875L110.62 219.639H110.623ZM82.7525 219.639H77.7415L81.7895 222.577L80.2585 227.341L84.3065 224.379L88.3545 227.341L86.8015 222.577L90.8475 219.639H85.8365L84.3055 214.875L82.7505 219.639H82.7525ZM54.9065 219.639H49.8955L53.9435 222.577L52.3885 227.341L56.4395 224.379L60.4855 227.341L58.9545 222.577L63.0025 219.639H57.9915L56.4385 214.875L54.9065 219.639ZM110.623 195.94H105.612L109.66 198.878L108.105 203.642L112.153 200.704L116.201 203.642L114.67 198.878L118.718 195.94H113.709L112.151 191.176L110.62 195.94H110.623ZM82.7525 195.94H77.7415L81.7895 198.878L80.2585 203.642L84.3065 200.704L88.3545 203.642L86.8015 198.878L90.8475 195.94H85.8365L84.3055 191.176L82.7505 195.94H82.7525ZM58.9545 198.878L63.0025 195.94H57.9915L56.4385 191.176L54.8805 195.94H50.6595C50.5605 196.063 50.4625 196.187 50.3875 196.31L53.9425 198.877L53.3255 200.778L52.3875 203.642L56.3125 200.778L56.4385 200.704L56.5595 200.778L60.5095 203.642L59.5715 200.778L58.9545 198.877V198.878ZM110.623 172.242H105.612L109.66 175.204L108.105 179.944L112.153 177.006L116.201 179.944L114.67 175.204L118.718 172.242H113.709L112.151 167.478L110.62 172.242H110.623ZM82.7525 172.242H77.7415L81.7895 175.204L80.2585 179.944L84.3065 177.006L88.3545 179.944L86.8015 175.204L90.8475 172.242H85.8365L84.3055 167.478L82.7505 172.242H82.7525Z" fill="white"/>
<path opacity="0.15" d="M140 370C79.358 370 30 320.642 30 260C30 199.358 79.358 150 140 150C200.642 150 250 199.333 250 260C250 320.667 200.669 370 140 370Z" fill="url(#paint1_linear_7701_4913)" fill-opacity="0.4"/>
<defs>
<linearGradient id="paint0_linear_7701_4913" x1="260" y1="30" x2="260" y2="250" gradientUnits="userSpaceOnUse">
<stop stop-color="white"/>
<stop offset="1"/>
</linearGradient>
<linearGradient id="paint1_linear_7701_4913" x1="140" y1="150" x2="140" y2="370" gradientUnits="userSpaceOnUse">
<stop stop-color="white"/>
<stop offset="1"/>
</linearGradient>
</defs>
</svg>
