<svg width="500" height="500" viewBox="0 0 500 500" fill="none" xmlns="http://www.w3.org/2000/svg">
<g clip-path="url(#clip0_3729_983)">
<circle cx="250" cy="250" r="250" fill="url(#paint0_linear_3729_983)"/>
<path fill-rule="evenodd" clip-rule="evenodd" d="M325.418 260.112C358.235 248.639 389.051 229.162 412.663 207.951C413.597 207.151 414.131 205.95 414.264 204.616C414.398 203.416 413.997 202.082 413.197 201.148C412.397 200.081 411.329 199.414 410.129 199.28C408.928 199.013 407.594 199.28 406.527 199.947C382.915 214.088 356.768 225.294 329.954 232.097C330.754 221.959 330.621 211.687 329.287 201.415C326.219 178.736 318.615 156.191 302.606 138.982C284.864 119.372 255.782 112.035 230.703 119.906C200.554 128.844 175.474 156.058 174.54 188.475C173.34 231.163 213.094 265.848 253.514 269.85C258.184 270.384 262.986 270.65 267.788 270.65C260.318 286.925 250.713 302.533 240.308 316.941C208.558 264.514 160.8 221.558 104.237 198.08C90.8971 192.343 77.2901 187.941 63.2829 184.873C58.4804 183.939 53.9447 183.005 49.0088 182.471C47.8082 182.338 46.6076 182.738 45.5404 183.405C44.4732 184.072 43.8061 185.139 43.5393 186.34C43.1391 187.541 43.2725 188.741 43.8061 189.809C44.3398 190.876 45.2736 191.81 46.3408 192.21C77.9571 207.818 107.039 228.228 132.385 252.774C165.202 284.391 191.082 322.544 208.425 364.566C216.028 382.708 239.907 389.378 255.916 377.639C258.317 375.771 260.585 373.77 262.586 371.502C276.86 356.028 289.533 338.952 300.205 320.676C311.144 302.267 320.082 281.589 325.418 260.112ZM254.448 343.221L254.848 344.022C254.715 343.755 254.582 343.488 254.448 343.221ZM278.861 238.5C281.396 227.828 282.596 216.889 282.196 205.95C281.129 186.34 273.525 158.592 250.179 158.192C230.036 157.925 211.626 177.002 217.362 197.146C225.9 226.628 251.38 237.3 278.861 238.5Z" fill="url(#paint1_linear_3729_983)"/>
<path d="M428.139 187.941C430.14 197.546 433.341 203.682 442.679 202.348C450.684 201.281 457.22 193.277 457.22 185.273C457.22 177.269 450.684 172.199 442.679 173.4C432.674 175.001 426.538 180.07 428.139 187.941Z" fill="url(#paint2_linear_3729_983)"/>
</g>
<defs>
<linearGradient id="paint0_linear_3729_983" x1="250" y1="0" x2="250" y2="500" gradientUnits="userSpaceOnUse">
<stop stop-color="#CFF4EC"/>
<stop offset="1" stop-color="#E8FCDB"/>
</linearGradient>
<linearGradient id="paint1_linear_3729_983" x1="44.9059" y1="114.306" x2="458.453" y2="381.11" gradientUnits="userSpaceOnUse">
<stop stop-color="#44BCC3"/>
<stop offset="1" stop-color="#236D66"/>
</linearGradient>
<linearGradient id="paint2_linear_3729_983" x1="128.386" y1="-15.0876" x2="541.933" y2="251.717" gradientUnits="userSpaceOnUse">
<stop stop-color="#44BCC3"/>
<stop offset="1" stop-color="#236D66"/>
</linearGradient>
<clipPath id="clip0_3729_983">
<rect width="500" height="500" fill="white"/>
</clipPath>
</defs>
</svg>
