<svg width="300" height="300" viewBox="0 0 300 300" fill="none" xmlns="http://www.w3.org/2000/svg">
<g clip-path="url(#clip0_9603_12054)">
<path d="M300 0H0V300H300V0Z" fill="#D69A00"/>
<path d="M113.551 123.578H186.988L176.279 94.8462C175.863 93.667 175.103 92.6406 174.096 91.9L113.551 123.578ZM113.35 89.4759C115.949 82.4858 121.671 78 127.979 78H171.404C177.713 78 183.434 82.4858 186.04 89.4759L196.743 118.208C199.956 126.828 194.767 136.604 186.988 136.604H112.401C104.623 136.604 99.439 126.828 102.646 118.208L113.355 89.4759H113.35ZM54.878 198.165H128.171L117.462 169.433C117.046 168.254 116.284 167.228 115.277 166.487L54.878 198.165ZM54.6704 164.063C57.2757 157.073 63.0027 152.587 69.3053 152.587H112.587C118.895 152.587 124.622 157.073 127.223 164.063L137.926 192.795C141.139 201.415 135.955 211.191 128.171 211.191H53.7166C45.9384 211.191 40.7546 201.415 43.9671 192.795L54.6704 164.063ZM245.88 198.165H172.092L232.988 166.493C233.941 167.164 234.708 168.176 235.188 169.439L245.886 198.165H245.88ZM186.525 152.587C180.217 152.587 174.489 157.073 171.889 164.063L161.186 192.795C157.973 201.415 163.157 211.191 170.941 211.191H245.886C253.664 211.191 258.847 201.415 255.635 192.795L244.927 164.063C242.343 157.073 236.62 152.587 230.313 152.587H186.525Z" fill="white"/>
</g>
<defs>
<clipPath id="clip0_9603_12054">
<rect width="300" height="300" rx="150" fill="white"/>
</clipPath>
</defs>
</svg>
