<svg width="432" height="432" viewBox="0 0 432 432" fill="none" xmlns="http://www.w3.org/2000/svg">
<circle cx="216" cy="216" r="216" fill="#1F2725"/>
<g filter="url(#filter0_d_2959_233)">
<path d="M412 217.05C412 219.038 411.972 221.025 411.916 223.012H411.687H316.584V218.669H224.829C224.829 217.76 224.857 216.852 224.857 215.971C224.857 215.092 224.857 214.155 224.829 213.275H316.584V208.96H316.726H411.829C411.944 211.656 412 214.353 412 217.05ZM223.211 197.49L313.007 186.447L313.547 190.762L408.365 179.094C407.459 174.438 406.38 169.839 405.158 165.325L311.813 176.823L312.353 181.138L222.132 192.238C222.53 193.998 222.899 195.758 223.211 197.547V197.49ZM218.527 180.116L304.348 158.682L305.399 162.883L396.47 140.144C394.597 135.743 392.581 131.4 390.425 127.17L302.019 149.257L303.07 153.458L216.539 175.091C217.249 176.766 217.902 178.441 218.527 180.144V180.116ZM210.918 163.849L291.147 133.557L292.679 137.617L377.563 105.565C374.811 101.534 371.914 97.6165 368.849 93.8123L287.711 124.444L289.245 128.504L208.051 159.165C209.045 160.697 210.01 162.259 210.918 163.849ZM200.386 148.803L271.247 111.868L273.232 115.729L351.589 74.8767C347.982 71.3846 344.235 68.0633 340.373 64.8552L266.731 103.238L268.719 107.099L196.667 144.658C197.916 146.02 199.165 147.383 200.357 148.803H200.386ZM183.295 132.564L247.455 91.7683L249.783 95.4305L320.585 50.4049C316.128 47.566 311.587 44.9258 306.903 42.456L242.26 83.5638L244.588 87.226L178.583 129.185C180.201 130.264 181.762 131.4 183.324 132.564H183.295ZM168.136 123.082L221.905 78.9929L224.659 82.343L285.213 32.6617C280.074 30.7028 274.795 28.9426 269.457 27.4096L215.744 71.4699L218.498 74.8199L162.77 120.527C164.587 121.322 166.375 122.173 168.136 123.082ZM148.064 115.275L190.535 73.003L193.573 76.069L247.54 22.4415C241.692 21.4762 235.759 20.7665 229.74 20.3123L183.721 66.1043L186.759 69.1703L141.904 113.798C143.976 114.224 146.02 114.707 148.064 115.275ZM124.586 111.726L158.455 70.6749L161.805 73.4288L205.893 20C199.194 20.3123 192.579 20.9652 186.078 21.9305L150.96 64.4861L154.31 67.2398L117.631 111.697C118.653 111.669 119.703 111.641 120.725 111.641C122.031 111.641 123.309 111.641 124.586 111.697V111.726ZM104.288 112.947L130.378 72.5771L134.012 74.9335L165.552 26.1037C158.341 27.9774 151.301 30.2486 144.43 32.8888L122.23 67.2683L125.864 69.6247L96.9636 114.366C99.3767 113.798 101.818 113.316 104.288 112.918V112.947ZM81.7469 119.221L100.512 84.0464L104.316 86.0904L129.157 39.5602C121.18 43.4496 113.514 47.8498 106.19 52.733L91.9101 79.4756L95.7428 81.5198L73.6559 122.911C76.2678 121.577 78.9647 120.356 81.7184 119.249L81.7469 119.221ZM65.5649 127.482L73.5424 104.827L77.6304 106.275L93.1309 62.2716C85.267 68.5174 77.8859 75.3308 71.044 82.6836L64.3726 101.619L68.4606 103.067L58.0133 132.706C60.4549 130.86 62.953 129.129 65.5364 127.51L65.5649 127.482ZM45.664 143.692L49.1841 127.227L53.4142 128.135L60.5117 94.9764C53.0451 104.458 46.4305 114.65 40.7811 125.41L43.9321 126.091L37.4595 153.345C39.9861 149.966 42.7398 146.73 45.664 143.692ZM31.0435 162.94V141.137C25.763 155.077 22.0156 172.422 20 189.427C22.4699 180.002 26.2173 171.117 31.0435 162.94ZM20.1419 243.083C22.2144 257.59 25.8482 271.586 30.9015 284.9V268.804C26.2457 260.855 22.5834 252.225 20.1419 243.083ZM38.1407 279.563L43.7903 305.908L40.6391 306.59C46.2884 317.378 52.9033 327.542 60.3696 337.024L53.2724 303.864L49.0424 304.773L45.4652 288.108C42.8819 285.384 40.412 282.546 38.1407 279.535V279.563ZM57.8145 299.152L68.3186 328.962L64.2306 330.408L70.902 349.344C77.7439 356.697 85.1252 363.512 92.9889 369.756L77.4883 325.752L73.4003 327.201L65.3946 304.432C62.8112 302.787 60.2844 301.054 57.843 299.208L57.8145 299.152ZM73.4856 309.003L95.6293 350.509L91.7966 352.553L106.077 379.296C113.401 384.178 121.066 388.579 129.043 392.469L104.203 345.938L100.37 347.982L81.5481 312.722C78.7944 311.615 76.0972 310.365 73.4571 309.031L73.4856 309.003ZM96.7931 317.576L125.722 362.376L122.088 364.731L144.288 399.112C151.159 401.752 158.199 404.023 165.41 405.896L133.87 357.067L130.236 359.424L104.118 318.997C101.648 318.6 99.1779 318.116 96.7648 317.548L96.7931 317.576ZM117.461 320.303L154.14 364.759L150.79 367.513L185.907 410.071C192.408 411.035 199.023 411.687 205.723 412L161.634 358.543L158.284 361.297L124.416 320.247C123.195 320.303 121.946 320.303 120.697 320.303C119.618 320.303 118.511 320.303 117.432 320.247L117.461 320.303ZM141.79 318.203L186.617 362.801L183.579 365.866L229.599 411.659C235.617 411.206 241.55 410.496 247.399 409.531L193.459 355.875L190.393 358.968L147.951 316.726C145.935 317.266 143.863 317.775 141.79 318.203ZM162.685 311.531L218.356 357.209L215.603 360.559L269.315 404.618C274.652 403.086 279.932 401.324 285.071 399.367L224.488 349.685L221.735 353.035L168.022 308.975C166.262 309.884 164.473 310.734 162.656 311.531H162.685ZM178.469 302.843L244.389 344.775L242.061 348.437L306.705 389.544C311.388 387.075 315.96 384.405 320.387 381.595L249.584 336.571L247.257 340.231L183.182 299.493C181.621 300.657 180.059 301.792 178.441 302.871L178.469 302.843ZM196.639 287.4L268.604 324.902L266.619 328.764L340.259 367.144C344.12 363.937 347.867 360.615 351.474 357.123L273.12 316.271L271.132 320.132L200.357 283.253C199.165 284.674 197.944 286.064 196.667 287.4H196.639ZM208.023 272.864L289.103 303.495L287.571 307.555L368.707 338.187C371.744 334.384 374.64 330.467 377.423 326.435L292.537 294.382L291.004 298.442L210.89 268.18C209.982 269.769 209.016 271.331 208.023 272.864ZM216.511 256.966L302.899 278.542L301.851 282.744L390.254 304.831C392.441 300.601 394.454 296.256 396.33 291.857L305.256 269.117L304.205 273.318L218.498 251.913C217.874 253.616 217.192 255.291 216.511 256.966ZM222.132 239.819L312.211 250.891L311.671 255.206L405.015 266.703C406.237 262.161 407.316 257.562 408.225 252.935L313.404 241.266L312.865 245.582L223.211 234.538C222.899 236.327 222.53 238.087 222.132 239.847V239.819Z" fill="white"/>
</g>
<defs>
<filter id="filter0_d_2959_233" x="16" y="20" width="400" height="400" filterUnits="userSpaceOnUse" color-interpolation-filters="sRGB">
<feFlood flood-opacity="0" result="BackgroundImageFix"/>
<feColorMatrix in="SourceAlpha" type="matrix" values="0 0 0 0 0 0 0 0 0 0 0 0 0 0 0 0 0 0 127 0" result="hardAlpha"/>
<feOffset dy="4"/>
<feGaussianBlur stdDeviation="2"/>
<feComposite in2="hardAlpha" operator="out"/>
<feColorMatrix type="matrix" values="0 0 0 0 0 0 0 0 0 0 0 0 0 0 0 0 0 0 0.25 0"/>
<feBlend mode="normal" in2="BackgroundImageFix" result="effect1_dropShadow_2959_233"/>
<feBlend mode="normal" in="SourceGraphic" in2="effect1_dropShadow_2959_233" result="shape"/>
</filter>
</defs>
</svg>
