<svg width="402" height="402" viewBox="0 0 402 402" fill="none" xmlns="http://www.w3.org/2000/svg">
<rect width="402" height="402" rx="201" fill="#272525"/>
<g clip-path="url(#clip0_10193_16554)">
<path d="M197.924 60.0332C187.332 60.086 176.855 62.2359 167.09 66.3603C157.326 70.4847 148.465 76.5034 141.013 84.0713C133.562 91.6393 127.666 100.609 123.663 110.468C119.66 120.327 117.628 130.883 117.683 141.531V168.451H182.879V129.45C182.878 127.618 183.237 125.805 183.933 124.112C184.63 122.42 185.651 120.882 186.94 119.587C188.228 118.292 189.757 117.265 191.44 116.564C193.123 115.863 194.927 115.503 196.749 115.503H199.099C200.921 115.503 202.725 115.863 204.408 116.564C206.091 117.265 207.621 118.292 208.909 119.587C210.197 120.882 211.219 122.42 211.916 124.112C212.613 125.805 212.971 127.618 212.971 129.45V234.002C221.533 234.002 230.011 232.307 237.921 229.013C245.831 225.719 253.019 220.89 259.073 214.803C265.127 208.716 269.929 201.49 273.206 193.536C276.482 185.584 278.168 177.059 278.168 168.451V141.531C278.214 119.956 269.763 99.2381 254.664 83.9074C247.254 76.3422 238.422 70.3351 228.68 66.2364C218.939 62.1376 208.484 60.0288 197.924 60.0332Z" fill="white"/>
<path d="M199.102 286.935H196.752C194.93 286.935 193.127 286.574 191.444 285.874C189.761 285.173 188.232 284.146 186.944 282.85C185.656 281.556 184.634 280.019 183.937 278.327C183.24 276.635 182.882 274.821 182.882 272.989V168.438C174.32 168.438 165.842 170.132 157.932 173.426C150.021 176.72 142.834 181.549 136.78 187.636C130.726 193.723 125.923 200.95 122.647 208.903C119.371 216.856 117.685 225.38 117.686 233.988V260.533C117.577 271.197 119.573 281.778 123.556 291.662C127.54 301.546 133.434 310.538 140.896 318.118C148.358 325.698 157.24 331.716 167.03 335.821C176.819 339.928 187.321 342.043 197.928 342.043C208.536 342.043 219.038 339.928 228.827 335.821C238.616 331.716 247.499 325.698 254.961 318.118C262.423 310.538 268.316 301.546 272.3 291.662C276.284 281.778 278.28 271.197 278.17 260.533V233.988H212.975V272.989C212.975 274.821 212.615 276.635 211.918 278.327C211.221 280.019 210.2 281.557 208.911 282.851C207.623 284.146 206.094 285.173 204.41 285.874C202.727 286.574 200.924 286.935 199.102 286.935Z" fill="white"/>
</g>
<defs>
<clipPath id="clip0_10193_16554">
<rect width="169.2" height="282" fill="white" transform="translate(116.8 60)"/>
</clipPath>
</defs>
</svg>
